<svg width="144" height="144" viewBox="0 0 144 144" fill="none" xmlns="http://www.w3.org/2000/svg">
<path d="M72.0397 144C57.7961 144.008 43.8701 139.791 32.0237 131.882C20.1773 123.974 10.9427 112.729 5.4883 99.5716C0.033874 86.4137 -1.39531 71.9336 1.38156 57.9632C4.15843 43.9929 11.0166 31.1601 21.0883 21.0883C31.1601 11.0166 43.9929 4.15843 57.9632 1.38156C71.9336 -1.39531 86.4137 0.033874 99.5716 5.4883C112.729 10.9427 123.974 20.1773 131.882 32.0237C139.791 43.8701 144.008 57.7961 144 72.0397C143.968 91.1151 136.377 109.4 122.889 122.889C109.4 136.377 91.1151 143.968 72.0397 144ZM72.0397 1.92611C58.1821 1.92611 44.6356 6.03487 33.1129 13.7329C21.5901 21.431 12.6086 32.3727 7.30369 45.1747C1.9988 57.9767 0.608783 72.0642 3.30938 85.6561C6.00998 99.2481 12.6799 111.734 22.476 121.536C32.272 131.337 44.7543 138.014 58.3447 140.723C71.935 143.431 86.0233 142.049 98.8283 136.751C111.633 131.454 122.58 122.478 130.285 110.96C137.989 99.4415 142.106 85.8973 142.114 72.0397C142.093 53.4614 134.703 35.6501 121.566 22.5132C108.429 9.37636 90.618 1.98685 72.0397 1.96582V1.92611Z" fill="#009E4D"/>
<path d="M72.0402 21.6333C82.012 21.6333 91.7597 24.5904 100.051 30.1306C108.342 35.6708 114.804 43.5453 118.619 52.7581C122.435 61.971 123.433 72.1085 121.487 81.8885C119.541 91.6685 114.738 100.652 107.686 107.702C100.634 114.752 91.6502 119.553 81.8698 121.498C72.0894 123.442 61.9521 122.442 52.74 118.625C43.5279 114.807 35.6547 108.344 30.1161 100.051C24.5776 91.7593 21.6224 82.011 21.6243 72.0392C21.6243 65.419 22.9285 58.8636 25.4622 52.7474C27.996 46.6312 31.7097 41.0741 36.3914 36.3933C41.0731 31.7126 46.631 27.9999 52.7477 25.4674C58.8643 22.9348 65.42 21.632 72.0402 21.6333ZM3.90234 72.0392C3.90234 85.5156 7.89856 98.6894 15.3856 109.895C22.8727 121.1 33.5144 129.833 45.965 134.99C58.4156 140.148 72.1158 141.497 85.3333 138.868C98.5507 136.239 110.692 129.749 120.221 120.22C129.75 110.691 136.24 98.5497 138.869 85.3323C141.498 72.1148 140.149 58.4146 134.991 45.964C129.834 33.5134 121.101 22.8718 109.896 15.3847C98.6904 7.89758 85.5166 3.90137 72.0402 3.90137C53.9697 3.904 36.6401 11.0836 23.8624 23.8614C11.0846 36.6392 3.90498 53.9688 3.90234 72.0392Z" fill="#009E4D"/>
<path d="M74.5034 40.3084L69.6386 35.9102C69.6386 35.9102 40.7472 66.9659 75.9927 83.556C75.9927 83.556 47.2801 69.1104 74.5034 40.3084Z" fill="#009E4D"/>
<path d="M60.8527 37.6676L56.0672 34.3516C56.0672 34.3516 34.0463 70.1629 67.2365 84.9263C67.2365 84.9263 42.396 74.8689 60.8527 37.6676Z" fill="#009E4D"/>
<path d="M48.1509 36.4967L43.4648 33.1807C43.4648 33.1807 24.4322 69.7962 60.7499 87.8558C60.7499 87.8558 34.0925 77.987 48.1509 36.4967Z" fill="#009E4D"/>
<path d="M89.8106 45.2734C85.4908 45.5348 81.3072 46.8838 77.6484 49.1951C80.0206 50.115 82.4784 50.7968 84.9854 51.2304C86.3565 49.0637 87.9759 47.0645 89.8106 45.2734Z" fill="#009E4D"/>
<path d="M86.2461 51.4381C89.7636 51.9488 93.3379 51.9287 96.8495 51.3785C95.4023 49.1295 93.7218 47.0396 91.8357 45.1436H91.6669C89.5936 46.9967 87.7712 49.1128 86.2461 51.4381Z" fill="#009E4D"/>
<path d="M104.534 49.1054C101.251 46.9712 97.5082 45.6444 93.6133 45.2334C95.3162 47.0714 96.842 49.0659 98.1704 51.1904C100.36 50.7233 102.493 50.0244 104.534 49.1054Z" fill="#009E4D"/>
<path d="M97.5249 52.4609C95.4923 52.816 93.4328 52.9954 91.3694 52.9971C89.4244 52.997 87.4824 52.8443 85.5613 52.5404C85.1841 53.1758 84.8167 53.841 84.4791 54.526C83.3355 56.82 82.5583 59.2789 82.1758 61.8134H101.228C100.555 58.5019 99.3014 55.3356 97.5249 52.4609Z" fill="#009E4D"/>
<path d="M83.4367 53.9803C83.7246 53.4144 84.0225 52.8584 84.3203 52.3322C81.6326 51.8395 79.0062 51.0572 76.4869 49.999C72.7121 52.9786 70.0535 57.1449 68.9414 61.8236H81.0241C81.404 59.097 82.2185 56.449 83.4367 53.9803Z" fill="#009E4D"/>
<path d="M80.8951 62.9951H68.6733C68.4066 64.2192 68.2571 65.4658 68.2266 66.7182C68.2645 69.8683 69.1382 72.9519 70.7583 75.6537C74.1987 73.834 77.8737 72.4976 81.6794 71.6824C80.9072 68.8556 80.6417 65.9145 80.8951 62.9951Z" fill="#009E4D"/>
<path d="M99.9961 71.2257L100.582 71.3151C100.701 70.9875 100.8 70.6598 100.9 70.3223C100.572 70.6201 100.314 70.918 99.9961 71.2257Z" fill="#009E4D"/>
<path d="M102.739 65.1095C102.776 67.2916 102.44 69.4639 101.746 71.5331C106.169 72.4226 110.467 73.8496 114.544 75.7824C114.849 74.1453 115.006 72.4837 115.01 70.8183C114.931 68.1863 114.572 65.5703 113.938 63.0146H102.6C102.679 63.6898 102.729 64.3947 102.739 65.1095Z" fill="#009E4D"/>
<path d="M102.422 61.8231H113.631C112.344 57.0964 109.557 52.9155 105.689 49.9092C103.494 50.9336 101.193 51.7127 98.8281 52.2324C100.586 55.1907 101.803 58.4383 102.422 61.8231Z" fill="#009E4D"/>
<path d="M96.7929 65.9341C97.3473 65.937 97.893 66.0718 98.385 66.3273C98.877 66.5828 99.3012 66.9516 99.6224 67.4034C100.047 67.9563 100.639 68.3569 101.31 68.5452C101.501 67.4371 101.587 66.3136 101.568 65.1894C101.556 64.4722 101.503 63.7562 101.41 63.0449H82.0295C81.7756 65.8933 82.0482 68.7641 82.8337 71.5138L83.2507 71.4343C86.1098 70.9063 89.0107 70.6371 91.9181 70.6301C94.5987 65.944 96.7929 65.9341 96.7929 65.9341Z" fill="#009E4D"/>
<path d="M96.2853 80.2405C96.2853 80.6078 96.2853 80.8263 96.2853 80.8263C96.5434 89.3944 90.7155 93.2068 90.7155 93.2068C79.4667 101.04 55.1523 105.577 55.1523 105.577C57.664 105.658 60.1751 105.401 62.6184 104.813C61.3242 105.6 59.8978 106.145 58.4088 106.421C60.8522 106.411 63.2902 106.192 65.6962 105.766C63.095 107.593 55.1523 108.477 55.1523 108.477C58.1035 108.756 61.0801 108.582 63.9786 107.96C61.3774 109.648 55.9268 110.343 55.9268 110.343C59.7711 110.352 63.6118 110.107 67.4237 109.608C65.5175 111.187 58.9052 112.587 58.9052 112.587C101.984 111.127 112.002 88.2725 114.325 77.0039C110.192 74.998 105.817 73.5363 101.309 72.6553C100.142 75.4855 98.4358 78.0617 96.2853 80.2405Z" fill="#009E4D"/>
<path d="M83.1797 72.5858C83.846 74.5706 84.7108 76.4832 85.761 78.2945C87.8961 76.3926 89.7453 74.1923 91.2514 71.7617C88.6568 71.8043 86.07 72.06 83.5173 72.5262L83.1797 72.5858Z" fill="#009E4D"/>
<path d="M99.1321 72.2783C97.8469 74.0516 96.9658 76.0849 96.5508 78.2353C98.0495 76.5132 99.2689 74.5668 100.165 72.467L99.1321 72.2783Z" fill="#009E4D"/>
<path d="M71.4453 76.5971C72.4266 77.8517 73.6578 78.8888 75.061 79.6425C76.4641 80.3962 78.0086 80.8501 79.5964 80.9755C81.5139 80.9044 83.3552 80.207 84.8386 78.9898C83.6894 77.0376 82.754 74.9672 82.0487 72.8145C78.36 73.592 74.7933 74.8644 71.4453 76.5971Z" fill="#009E4D"/>
<path d="M28.9232 35.5238C28.3934 35.537 27.8663 35.4441 27.373 35.2504C26.8796 35.0568 26.43 34.7664 26.0507 34.3963C25.6713 34.0262 25.3699 33.5839 25.1641 33.0955C24.9584 32.6071 24.8525 32.0824 24.8526 31.5524C24.8404 31.0229 24.9342 30.4962 25.1286 30.0034C25.323 29.5107 25.614 29.0618 25.9844 28.6832C26.415 28.2492 26.9371 27.917 27.5125 27.7109C28.088 27.5048 28.7023 27.4299 29.3104 27.4918C29.3104 27.4918 29.1019 29.1597 29.1019 29.1895C28.6291 29.1362 28.1515 29.2347 27.7382 29.4706C27.325 29.7066 26.9974 30.0678 26.8029 30.5021C26.6084 30.9364 26.557 31.4213 26.6562 31.8867C26.7554 32.3522 26.9999 32.774 27.3546 33.0913C27.5633 33.3033 27.8122 33.4716 28.0866 33.5864C28.361 33.7013 28.6555 33.7605 28.953 33.7605C29.2505 33.7605 29.545 33.7013 29.8194 33.5864C30.0939 33.4716 30.3427 33.3033 30.5515 33.0913C30.7794 32.849 30.9524 32.5604 31.0586 32.2451C31.1648 31.9298 31.2018 31.5954 31.167 31.2645L32.8052 30.9865C32.8799 31.5872 32.8207 32.1969 32.6319 32.7719C32.4431 33.347 32.1293 33.8731 31.7131 34.3125C30.9752 35.0624 29.975 35.4967 28.9232 35.5238Z" fill="white"/>
<path d="M114.831 26.112L109.767 31.6619L108.477 30.4804L113.53 24.9404C113.609 25.0099 114.741 26.0425 114.831 26.112Z" fill="white"/>
<path d="M131.677 53.2353L124.499 55.4196L123.992 53.7516L131.17 51.5674L131.677 53.2353Z" fill="white"/>
<path d="M120.661 32.436L112.926 35.0868L111.934 33.9947C111.934 33.9252 115.25 26.7272 115.329 26.5684L116.659 28.0377L114.316 32.8033L119.33 30.9269L120.661 32.436Z" fill="white"/>
<path d="M123.865 36.9432L122.673 37.7771L120.896 35.2454L119.645 36.129L121.363 38.5515L120.172 39.3855L118.464 36.963L117.133 37.9558L118.911 40.4776L117.729 41.3116C117.66 41.2223 115.009 37.4694 114.949 37.3403C115.039 37.2708 120.986 33.0811 121.085 33.0215L123.865 36.9432Z" fill="white"/>
<path d="M122.991 43.8935L123.061 43.9829V44.0325C123.368 44.4173 123.808 44.6741 124.294 44.753C124.78 44.8319 125.278 44.7273 125.691 44.4594C126.952 43.7446 127.191 42.4738 126.347 41.0044L124.947 38.5322L118.414 42.2355C118.474 42.3248 119.228 43.6751 119.288 43.7744L122.068 42.1958L120.41 45.7104L121.502 47.6365L122.991 43.8935ZM122.991 42.0866L122.852 41.7391L124.699 40.7462L124.877 41.054C125.066 41.3816 125.672 42.4638 124.748 42.9801C123.825 43.4964 123.219 42.4142 123.031 42.0866H122.991Z" fill="white"/>
<path d="M133.207 59.3614L131.747 59.6791C131.747 59.5699 131.37 57.9417 131.37 57.9417L125.493 59.2224C125.493 59.1132 125.135 57.5446 125.105 57.4354L130.983 56.1645C130.983 56.1645 130.626 54.5363 130.606 54.4271L132.065 54.1094C132.085 54.2285 133.187 59.2423 133.207 59.3614Z" fill="white"/>
<path d="M10.8823 56.2435C10.7284 57.0106 10.8045 57.806 11.101 58.53C11.3976 59.254 11.9014 59.8743 12.5492 60.313C13.197 60.7517 13.96 60.9892 14.7423 60.9959C15.5246 61.0025 16.2915 60.7779 16.9467 60.3503C17.6018 59.9226 18.1161 59.311 18.4249 58.5922C18.7337 57.8733 18.8233 57.0793 18.6824 56.3097C18.5416 55.5401 18.1765 54.8293 17.6331 54.2664C17.0897 53.7035 16.3922 53.3137 15.628 53.1458C14.5885 52.9337 13.5073 53.14 12.6189 53.7199C11.7305 54.2998 11.1065 55.2065 10.8823 56.2435ZM17.008 57.7625C16.928 58.0715 16.7865 58.3611 16.5919 58.6141C16.3973 58.8671 16.1537 59.0782 15.8756 59.2349C15.5976 59.3915 15.2907 59.4905 14.9735 59.5258C14.6563 59.5611 14.3353 59.532 14.0296 59.4404C13.4452 59.277 12.9474 58.8924 12.6419 58.3681C12.3364 57.8438 12.2472 57.2212 12.3931 56.6322C12.5391 56.0432 12.9088 55.5343 13.4237 55.2133C13.9387 54.8924 14.5584 54.7847 15.1515 54.9131C15.4632 54.973 15.7596 55.0952 16.023 55.2722C16.2865 55.4493 16.5116 55.6776 16.6849 55.9435C16.8581 56.2095 16.9761 56.5076 17.0316 56.8201C17.0871 57.1326 17.0791 57.4531 17.008 57.7625Z" fill="white"/>
<path d="M14.007 47.2586C13.7201 47.9867 13.6547 48.7834 13.819 49.5485C13.9834 50.3137 14.3702 51.0132 14.9308 51.5593C15.4914 52.1054 16.2009 52.4736 16.9702 52.6178C17.7394 52.762 18.5341 52.6757 19.2544 52.3697C19.9747 52.0637 20.5886 51.5518 21.0189 50.8981C21.4492 50.2444 21.6768 49.4781 21.6731 48.6955C21.6693 47.9129 21.4344 47.1488 20.9979 46.4992C20.5613 45.8497 19.9426 45.3436 19.2193 45.0445C18.7322 44.8431 18.2099 44.7407 17.6828 44.7432C17.1557 44.7457 16.6343 44.8532 16.1492 45.0592C15.664 45.2653 15.2247 45.5659 14.857 45.9435C14.4892 46.3211 14.2002 46.7681 14.007 47.2586ZM19.7654 49.8399C19.6325 50.1252 19.444 50.3811 19.2109 50.5926C18.9778 50.804 18.7048 50.9668 18.4079 51.0713C18.111 51.1758 17.7963 51.22 17.4821 51.2012C17.1679 51.1824 16.8607 51.101 16.5784 50.9618C16.0136 50.709 15.5723 50.2422 15.3517 49.6641C15.1311 49.086 15.1491 48.4439 15.4019 47.8791C15.6547 47.3143 16.1215 46.873 16.6996 46.6524C17.2777 46.4317 17.9198 46.4498 18.4846 46.7026C18.7776 46.8208 19.0439 46.9966 19.2677 47.2196C19.4916 47.4426 19.6684 47.7082 19.7878 48.0007C19.9072 48.2932 19.9668 48.6066 19.9629 48.9226C19.9591 49.2385 19.8919 49.5504 19.7654 49.8399Z" fill="white"/>
<path d="M19.5701 37.5286L23.8691 40.1298L17.5944 40.8348L16.6016 42.4332L23.0152 46.3251C23.0649 46.2258 23.879 44.9054 23.9286 44.8061L19.6396 42.1949L25.9342 41.4999L26.927 39.9114L20.5133 36.0195C20.4339 36.1188 19.6297 37.4393 19.5701 37.5286Z" fill="white"/>
<path d="M110.471 22.5674L107.492 26.5387L107.383 20.2243L105.894 19.1123C105.824 19.2116 101.486 25.0693 101.406 25.1289L102.826 26.1813L105.804 22.1504L105.904 28.4945L107.393 29.6065C107.472 29.5172 111.811 23.6495 111.881 23.59L110.471 22.5674Z" fill="white"/>
<path d="M47.8232 13.9396L49.9478 18.457L44.3284 15.5778L42.6406 16.3621L45.8276 23.1531L47.4261 22.4084L45.3014 17.8116L50.9307 20.7206L52.6583 19.8966L49.4812 13.0957L47.8232 13.9396Z" fill="white"/>
<path d="M83.2973 10.117L82.5328 15.0812L79.465 9.52132L77.6183 9.2334C77.6183 9.35254 76.4964 16.5406 76.4766 16.6498L78.2239 16.9278L78.9983 11.9637L82.0463 17.5235L83.8831 17.8114C83.8831 17.6923 85.0149 10.5141 85.0248 10.395L83.2973 10.117Z" fill="white"/>
<path d="M15.1005 64.0473C14.3955 63.9679 14.058 64.7622 13.8693 65.2487V65.3082C13.3332 66.6188 12.5092 67.2939 11.427 67.1847C11.1413 67.1744 10.8613 67.1025 10.606 66.974C10.3507 66.8455 10.1261 66.6633 9.94767 66.4401C9.7003 66.1362 9.51875 65.7843 9.41449 65.4066C9.31024 65.0289 9.28557 64.6336 9.34204 64.2459C9.45138 63.4579 9.7438 62.7064 10.1959 62.0518L11.3773 62.846C11.0418 63.1904 10.823 63.6314 10.7519 64.1069C10.6724 64.7622 10.9604 65.2288 11.4866 65.2884C12.0128 65.348 12.3702 64.7324 12.5489 64.3651L12.7772 63.8289C12.9183 63.3455 13.2165 62.9229 13.6247 62.628C14.0328 62.3331 14.5277 62.1827 15.031 62.2007C15.4044 62.2045 15.7717 62.2964 16.1029 62.4689C16.4342 62.6414 16.72 62.8897 16.9372 63.1935C17.3481 63.8536 17.51 64.6387 17.3939 65.4075C17.2781 66.3173 16.8984 67.1732 16.3018 67.8697L15.0508 67.0159C15.5701 66.5835 15.9214 65.9828 16.0436 65.3182C16.0704 65.1722 16.0669 65.0222 16.0333 64.8777C15.9997 64.7331 15.9367 64.597 15.8482 64.4778C15.7598 64.3586 15.6477 64.2589 15.5191 64.1848C15.3905 64.1108 15.248 64.064 15.1005 64.0473Z" fill="white"/>
<path d="M41.2133 17.0469L43.477 20.631C43.7828 20.9947 44.0089 21.4186 44.1406 21.8753C44.2723 22.3319 44.3066 22.8111 44.2415 23.2818C43.9172 24.1156 43.3346 24.8237 42.5789 25.3025C41.8232 25.7812 40.9342 26.0056 40.0418 25.9426C39.5866 25.8018 39.1663 25.5662 38.8087 25.2514C38.4511 24.9365 38.1641 24.5495 37.9668 24.1158C37.9668 24.1158 35.7826 20.631 35.7031 20.5317L37.2023 19.5885L39.317 22.9344C39.7539 23.6393 40.5084 24.8207 41.7693 24.0265C43.0302 23.2322 42.2757 22.0408 41.8388 21.3458C41.8388 21.3458 39.7837 18.0993 39.7241 17.9901L41.2133 17.0469Z" fill="white"/>
<path d="M32.914 22.6958L34.7905 24.8602L32.5368 26.7962L30.6901 24.6517L29.3398 25.8033L34.2246 31.5022L35.5748 30.3505L33.4799 27.9379L35.7436 25.9523L37.769 28.3946L39.1093 27.233L34.2345 21.5342L32.914 22.6958Z" fill="white"/>
<path d="M59.291 10.3748C59.291 10.494 59.9462 13.125 59.9462 13.125L57.0472 13.82C57.0472 13.82 56.4118 11.179 56.382 11.0698L54.6445 11.4769C54.6445 11.596 56.3621 18.665 56.382 18.7742L58.1095 18.3671C58.1095 18.2579 57.3748 15.2993 57.3748 15.2993L60.2739 14.6043C60.2739 14.6043 60.9788 17.5828 61.0086 17.6721L62.7361 17.2651C62.7361 17.1459 61.0284 10.077 60.9986 9.96777L59.291 10.3748Z" fill="white"/>
<path d="M69.192 8.97559L66.9085 13.1157C66.9085 13.1157 67.2858 16.6303 67.3056 16.7395L65.5682 16.9182C65.5682 16.809 65.1611 13.3242 65.1611 13.3242C65.1611 13.3242 62.3911 10.2166 62.0039 9.76985L64.0988 9.53157L65.8462 11.5172L67.0971 9.17415L69.192 8.97559Z" fill="white"/>
<path d="M134.319 66.907L130.169 64.6731L126.535 65.11C126.535 65.0008 126.326 63.4718 126.316 63.3626L129.91 62.9158L133.425 59.709C133.425 59.9274 133.683 61.7542 133.693 61.8039L131.707 63.581L134.07 64.8121C134.07 64.8717 134.299 66.6985 134.319 66.907Z" fill="white"/>
<path d="M73.511 9.13379H71.5254C71.5254 9.20329 68.5469 16.4212 68.5469 16.58H70.4134C70.4134 16.5204 70.9197 15.2496 70.9197 15.2496L73.9876 15.3092L74.4046 16.6594H76.2909C76.1718 16.5403 73.5706 9.21322 73.511 9.13379ZM71.3566 13.9391L72.4288 11.1393L72.4884 10.9805L73.4812 13.9589L71.3566 13.9391Z" fill="white"/>
<path d="M85.9971 17.1663C85.7247 16.7054 85.5506 16.1932 85.4857 15.6619C85.4208 15.1305 85.4664 14.5915 85.6198 14.0786C85.7729 13.5667 86.0276 13.0909 86.3688 12.6798C86.71 12.2687 87.1306 11.9306 87.6055 11.6859C88.1095 11.4183 88.6643 11.2602 89.2336 11.222C89.8029 11.1838 90.3739 11.2662 90.9091 11.464C91.4443 11.6618 91.9317 11.9704 92.3393 12.3697C92.747 12.7689 93.0657 13.2498 93.2746 13.7807L92.4207 14.0687L91.5967 14.3566C91.428 13.9165 91.1238 13.5414 90.7281 13.2854C90.3324 13.0294 89.8656 12.9057 89.395 12.9322C88.9244 12.9587 88.4744 13.134 88.11 13.4329C87.7455 13.7317 87.4854 14.1386 87.3672 14.5949C87.2769 14.8897 87.2462 15.1995 87.2769 15.5064C87.3076 15.8132 87.399 16.1108 87.5459 16.3819C87.6877 16.6431 87.8802 16.8733 88.112 17.0591C88.3439 17.2449 88.6105 17.3826 88.8962 17.4641C89.291 17.595 89.7163 17.6024 90.1154 17.4853C90.5146 17.3683 90.8685 17.1323 91.1301 16.8089L89.3926 16.2727C89.3926 16.2727 89.7599 15.0416 89.7699 15.0218L93.4235 16.104C93.4235 16.1536 93.4235 16.2132 93.4235 16.2529C93.1848 17.1378 92.6658 17.9216 91.9442 18.4867C91.44 18.8541 90.8582 19.1006 90.2437 19.2073C89.6291 19.3141 88.9982 19.2781 88.3998 19.1023C87.3813 18.787 86.5218 18.0944 85.9971 17.1663Z" fill="white"/>
<path d="M125.036 50.4456C125.682 50.1577 125.572 49.3038 125.493 48.7876V48.6883C125.294 47.2785 125.682 46.3154 126.645 45.819C126.896 45.6868 127.173 45.6079 127.456 45.5874C127.74 45.5669 128.025 45.6052 128.293 45.6999C128.659 45.8406 128.992 46.0538 129.274 46.3268C129.556 46.5998 129.779 46.9269 129.931 47.2884C130.243 48.0175 130.376 48.8107 130.318 49.6017L128.898 49.5223C129.005 49.0561 128.971 48.5687 128.799 48.1224C128.521 47.5167 128.044 47.2685 127.558 47.487C127.071 47.7054 127.081 48.4103 127.111 48.8173L127.191 49.3932C127.329 49.8802 127.3 50.3998 127.107 50.8681C126.914 51.3364 126.57 51.7262 126.128 51.9745C125.8 52.1594 125.433 52.2639 125.057 52.2794C124.681 52.2949 124.306 52.2211 123.964 52.0639C123.273 51.7064 122.731 51.1154 122.435 50.3959C122.075 49.5545 121.965 48.6275 122.117 47.7252L123.626 47.8146C123.399 48.457 123.399 49.1578 123.626 49.8002C123.675 49.9363 123.75 50.0613 123.848 50.1678C123.946 50.2744 124.064 50.3602 124.195 50.4204C124.327 50.4805 124.469 50.5137 124.613 50.5181C124.758 50.5224 124.901 50.4978 125.036 50.4456Z" fill="white"/>
<path d="M104.137 17.9106C104.137 18.0198 102.151 21.6437 102.151 21.6437C101.665 22.5571 101.158 23.3315 100.166 23.6293C99.281 23.7616 98.3773 23.6039 97.5898 23.1797C96.8023 22.7556 96.1734 22.0878 95.7972 21.2763C95.6985 20.8116 95.6978 20.3314 95.7953 19.8664C95.8927 19.4014 96.0861 18.9618 96.3631 18.5758C96.3631 18.5758 98.3487 14.952 98.3487 14.8428L99.9075 15.6867C99.8479 15.786 98.031 19.1715 98.031 19.1715C97.6438 19.9062 96.9786 21.1572 98.2892 21.8422C99.5997 22.5273 100.275 21.316 100.662 20.5813C100.662 20.5813 102.479 17.1958 102.538 17.0965L104.137 17.9106Z" fill="white"/>
<path d="M21.2458 101.1C21.6889 100.755 22.0176 100.285 22.189 99.75C22.3088 99.246 22.2268 98.7152 21.9606 98.2707C21.8158 97.998 21.6204 97.7555 21.3848 97.5559C21.1474 97.353 20.859 97.2191 20.5508 97.1687C20.1734 97.1114 19.7883 97.1317 19.419 97.2282C18.8904 97.3593 18.3825 97.5632 17.9099 97.8339C17.5519 98.0163 17.2183 98.2432 16.9171 98.509C16.6405 98.741 16.4113 99.0242 16.2419 99.343C16.0677 99.6448 15.9759 99.9872 15.9759 100.336C15.9759 100.684 16.0677 101.027 16.2419 101.329C16.4756 101.744 16.8191 102.088 17.2348 102.321C17.6805 102.566 18.1865 102.68 18.6942 102.649L18.6247 103.116C18.0253 103.126 17.4347 102.971 16.9171 102.669C16.422 102.32 16.0226 101.852 15.7554 101.309C15.5055 100.868 15.3468 100.382 15.2888 99.8791C15.2388 99.4341 15.2863 98.9835 15.4278 98.5586C15.5729 98.1391 15.8027 97.7538 16.1029 97.4268C16.4228 97.0694 16.8024 96.7703 17.2248 96.5432C17.671 96.2946 18.1589 96.1298 18.6644 96.0567C19.1306 95.9863 19.6059 96.0065 20.0643 96.1163C20.5099 96.2217 20.9289 96.4177 21.2954 96.6921C21.6785 96.9771 21.9938 97.3432 22.2188 97.7644C22.5014 98.2323 22.6871 98.7522 22.7648 99.2933C22.8119 99.653 22.7814 100.019 22.6755 100.366C22.5637 100.596 22.3879 100.789 22.1691 100.922C21.9308 101.07 21.6727 101.229 21.4046 101.378L21.2458 101.1Z" fill="white"/>
<path d="M21.4449 103.761C21.8403 103.465 22.2836 103.24 22.7554 103.095C23.1955 102.961 23.6575 102.914 24.1156 102.956C24.5848 103.01 25.0375 103.161 25.4445 103.401C25.8515 103.64 26.2038 103.962 26.4785 104.346C26.7813 104.732 26.9949 105.179 27.104 105.657C27.1931 106.099 27.1931 106.555 27.104 106.997C27.0109 107.446 26.8359 107.873 26.5877 108.258C26.3194 108.666 25.9836 109.025 25.5949 109.32C25.2034 109.624 24.7591 109.853 24.2844 109.995C23.8486 110.134 23.389 110.181 22.9341 110.134C22.4831 110.092 22.0464 109.953 21.6534 109.727C21.2253 109.478 20.8561 109.14 20.5712 108.735C20.2684 108.349 20.0548 107.902 19.9457 107.424C19.8566 106.982 19.8566 106.526 19.9457 106.084C20.0279 105.629 20.2037 105.196 20.462 104.813C20.728 104.409 21.0603 104.053 21.4449 103.761ZM24.7311 108.159C25.4232 107.704 25.9737 107.064 26.3197 106.312C26.4328 106.036 26.4724 105.735 26.4345 105.439C26.3967 105.142 26.2827 104.861 26.1037 104.622C25.9246 104.383 25.6867 104.194 25.4131 104.075C25.1395 103.955 24.8395 103.908 24.5425 103.939C23.7293 104.067 22.965 104.41 22.3285 104.932C21.6385 105.389 21.0886 106.028 20.74 106.779C20.6199 107.051 20.5759 107.351 20.6126 107.646C20.6494 107.942 20.7654 108.222 20.9485 108.457C21.1216 108.702 21.3578 108.896 21.6322 109.019C21.9066 109.141 22.2089 109.187 22.5072 109.152C23.3261 109.033 24.0961 108.689 24.7311 108.159Z" fill="white"/>
<path d="M29.826 115.704L33.2612 112.289L33.6285 112.666L28.6644 117.63L28.3268 117.283L28.9026 110.422L25.1994 114.096L24.832 113.719L28.8629 109.747C28.9542 109.658 29.0342 109.558 29.1012 109.449C29.161 109.353 29.1983 109.244 29.2104 109.132C29.2152 109.012 29.1913 108.893 29.1409 108.784C29.079 108.641 28.9877 108.512 28.8728 108.407L29.1012 108.188L29.6175 108.705C29.858 108.934 30.0533 109.207 30.1933 109.509C30.2899 109.755 30.324 110.021 30.2926 110.283L29.826 115.704Z" fill="white"/>
<path d="M38.3917 116.508C38.513 116.602 38.6171 116.717 38.6995 116.846C38.7536 116.944 38.7873 117.052 38.7988 117.164C38.7994 117.267 38.7756 117.369 38.7293 117.462C38.6898 117.558 38.6362 117.649 38.5704 117.73L38.0244 118.435L37.7662 118.236C37.8939 118.107 37.9906 117.95 38.049 117.778C38.1075 117.606 38.1262 117.423 38.1038 117.243C38.0151 116.904 37.8071 116.608 37.518 116.409L36.3663 115.506L34.7083 117.62L36.5252 119.05L36.2373 119.417L34.4105 117.998L32.3652 120.599L31.293 119.755L34.7877 115.387C34.9541 115.185 35.079 114.952 35.1551 114.701C35.2014 114.496 35.1021 114.298 34.8572 114.106L34.7778 114.036L34.9664 113.788L38.3917 116.508Z" fill="white"/>
<path d="M39.6836 122.505C39.3507 123.009 39.1682 123.598 39.1574 124.203C39.1711 124.448 39.2478 124.685 39.3799 124.892C39.5121 125.099 39.6953 125.268 39.9119 125.384C40.1499 125.556 40.4255 125.668 40.7157 125.711C41.0059 125.754 41.3023 125.727 41.5799 125.632C42.2105 125.301 42.7211 124.78 43.0393 124.143L45.025 120.787L45.4817 121.055L43.496 124.411C43.2745 124.798 43.0043 125.155 42.6919 125.473C42.4331 125.734 42.1217 125.938 41.7785 126.069C41.4445 126.174 41.0897 126.195 40.7459 126.129C40.3121 126.044 39.898 125.879 39.5247 125.642C37.8965 124.649 37.6284 123.279 38.7007 121.482L40.0112 119.298C40.1564 119.079 40.2544 118.832 40.2991 118.573C40.2991 118.365 40.1999 118.176 39.9219 118.017L40.0906 117.739L41.0835 118.345C41.2162 118.423 41.3366 118.52 41.4409 118.633C41.521 118.731 41.5664 118.853 41.57 118.98C41.5749 119.13 41.5478 119.279 41.4905 119.417C41.4051 119.619 41.3056 119.815 41.1927 120.003L39.6836 122.505Z" fill="white"/>
<path d="M51.6683 126.297C51.8034 125.755 51.7723 125.184 51.579 124.659C51.3537 124.198 50.9587 123.843 50.4769 123.666C50.1953 123.54 49.8919 123.469 49.5834 123.458C49.2722 123.446 48.9636 123.518 48.6899 123.666C48.3566 123.853 48.0659 124.106 47.836 124.411C47.5126 124.84 47.2488 125.311 47.0517 125.811C46.8941 126.167 46.7775 126.54 46.7042 126.923C46.6451 127.281 46.6451 127.647 46.7042 128.005C46.7618 128.335 46.8943 128.648 47.0914 128.919C47.3226 129.211 47.6276 129.438 47.975 129.574C48.4129 129.761 48.894 129.823 49.365 129.753C49.8684 129.67 50.3392 129.451 50.7252 129.117L50.9535 129.514C50.4923 129.899 49.9308 130.143 49.3352 130.219C48.7036 130.276 48.0686 130.159 47.4985 129.882C47.033 129.689 46.6084 129.409 46.2475 129.058C45.93 128.738 45.689 128.351 45.5426 127.926C45.3951 127.506 45.3376 127.059 45.3738 126.615C45.4454 125.624 45.8555 124.689 46.5354 123.964C46.8706 123.625 47.2641 123.35 47.697 123.15C48.1166 122.963 48.5683 122.859 49.0274 122.842C49.5054 122.833 49.9798 122.928 50.4174 123.12C50.925 123.312 51.3879 123.606 51.7776 123.984C52.0407 124.234 52.2443 124.539 52.3732 124.878C52.4458 125.121 52.4458 125.379 52.3732 125.622C52.274 125.9 52.1648 126.178 52.0456 126.466L51.6683 126.297Z" fill="white"/>
<path d="M54.9336 124.997L56.2342 125.394L54.5862 130.726C54.5 130.974 54.4662 131.238 54.4869 131.5C54.4869 131.709 54.6755 131.858 54.9833 131.957H55.0826L54.9932 132.255L53.782 131.877C53.6295 131.841 53.4849 131.777 53.355 131.689C53.2576 131.612 53.185 131.509 53.1466 131.391C53.1126 131.244 53.1126 131.091 53.1466 130.944C53.1752 130.725 53.2251 130.509 53.2955 130.299L54.9336 124.997Z" fill="white"/>
<path d="M59.3199 130.577C59.1831 131.166 59.214 131.782 59.4093 132.354C59.5024 132.58 59.6531 132.778 59.8464 132.928C60.0398 133.078 60.269 133.174 60.5113 133.208C60.7938 133.289 61.0916 133.302 61.38 133.245C61.6684 133.188 61.939 133.063 62.1693 132.88C62.6518 132.359 62.9575 131.699 63.043 130.994L63.8075 127.152L64.3238 127.261L63.5792 131.093C63.4957 131.535 63.3591 131.965 63.1721 132.374C63.0214 132.708 62.7974 133.003 62.5168 133.238C62.2328 133.473 61.8891 133.624 61.524 133.675C61.0873 133.753 60.6402 133.753 60.2035 133.675C58.3436 133.297 57.6189 132.086 58.0292 130.041L58.5356 127.539C58.5844 127.283 58.5844 127.02 58.5356 126.765C58.5356 126.556 58.2973 126.427 57.9895 126.358L58.0491 126.05L59.1908 126.278C59.3443 126.306 59.492 126.36 59.6277 126.437C59.7349 126.505 59.8209 126.601 59.8759 126.715C59.9297 126.857 59.9501 127.01 59.9355 127.162C59.9283 127.379 59.9017 127.595 59.856 127.807L59.3199 130.577Z" fill="white"/>
<path d="M68.1378 134.757C67.8492 134.741 67.563 134.694 67.284 134.618C67.0256 134.546 66.7759 134.446 66.5394 134.32C66.3405 134.209 66.1651 134.061 66.0231 133.883C65.9 133.729 65.8365 133.535 65.8444 133.337L65.9338 132.106H66.2515C66.2532 132.688 66.4527 133.251 66.8174 133.705C67.179 134.058 67.6619 134.261 68.1676 134.27C68.51 134.308 68.8557 134.242 69.1605 134.082C69.2847 134.001 69.387 133.891 69.458 133.761C69.5291 133.631 69.5667 133.485 69.5675 133.337C69.5936 133.062 69.5117 132.788 69.3392 132.573C69.1169 132.32 68.8633 132.096 68.5846 131.907L67.3237 131.093C66.9251 130.863 66.5853 130.544 66.3309 130.16C66.1533 129.843 66.0738 129.48 66.1025 129.118C66.1137 128.864 66.1864 128.616 66.3143 128.397C66.4423 128.177 66.6218 127.992 66.8372 127.857C67.3621 127.542 67.9774 127.413 68.5846 127.489C68.8736 127.509 69.1598 127.559 69.4384 127.638C69.6997 127.701 69.9506 127.801 70.1831 127.936C70.3842 128.044 70.5602 128.192 70.6993 128.373C70.762 128.448 70.8092 128.535 70.8382 128.629C70.8672 128.723 70.8773 128.821 70.8681 128.919L70.8284 130.101H70.5306C70.5199 129.521 70.3213 128.96 69.9646 128.502C69.6373 128.159 69.1877 127.959 68.7137 127.946C68.3963 127.911 68.0767 127.989 67.8102 128.165C67.6949 128.246 67.5999 128.352 67.5327 128.476C67.4655 128.6 67.428 128.738 67.423 128.879C67.4113 129.018 67.4317 129.157 67.4826 129.286C67.5254 129.408 67.593 129.52 67.6811 129.614C67.772 129.731 67.8789 129.835 67.9988 129.922C68.118 130.021 68.2669 130.13 68.4258 130.24L69.6668 131.093C70.0449 131.338 70.3803 131.643 70.6596 131.997C70.8597 132.287 70.9511 132.639 70.9178 132.99C70.9085 133.266 70.8323 133.536 70.6957 133.776C70.5591 134.017 70.3661 134.22 70.1334 134.37C69.5313 134.721 68.8277 134.858 68.1378 134.757Z" fill="white"/>
<path d="M80.3789 127.321L81.7391 127.122L82.5234 132.642C82.5545 132.903 82.6354 133.156 82.7617 133.387C82.8365 133.481 82.9383 133.551 83.0535 133.586C83.1687 133.622 83.292 133.621 83.407 133.585H83.5163V133.903L82.2653 134.082C82.1112 134.112 81.9527 134.112 81.7987 134.082C81.6745 134.063 81.5616 133.999 81.4809 133.903C81.3784 133.791 81.3066 133.654 81.2725 133.506C81.2063 133.296 81.1598 133.08 81.1335 132.861L80.3789 127.321Z" fill="white"/>
<path d="M90.5261 130.16L89.3943 125.464L89.9007 125.335L91.5587 132.086L91.0921 132.205L85.4826 128.234L86.7534 133.288L86.2371 133.417L84.8472 127.906C84.8207 127.782 84.7773 127.662 84.7181 127.549C84.6647 127.448 84.5902 127.36 84.4997 127.291C84.3961 127.229 84.2814 127.189 84.1621 127.172C84.0078 127.144 83.8498 127.144 83.6955 127.172H83.6458L83.5664 126.864L84.2912 126.685C84.6127 126.589 84.9504 126.558 85.284 126.596C85.5459 126.631 85.7931 126.738 85.9988 126.904L90.5261 130.16Z" fill="white"/>
<path d="M96.5915 130.457C96.321 130.561 96.042 130.641 95.7575 130.696C95.4926 130.746 95.2224 130.762 94.9533 130.745C94.7265 130.729 94.5044 130.672 94.2981 130.576C94.1189 130.489 93.9802 130.336 93.9109 130.15L93.4542 129.008L93.752 128.889C94.003 129.417 94.4267 129.845 94.9533 130.1C95.431 130.263 95.9528 130.238 96.4128 130.03C96.7328 129.919 97.0103 129.711 97.2071 129.435C97.2851 129.311 97.3313 129.171 97.3417 129.025C97.3521 128.88 97.3263 128.734 97.2666 128.601C97.2225 128.469 97.151 128.347 97.057 128.245C96.9629 128.142 96.8483 128.061 96.7206 128.005C96.4031 127.87 96.0694 127.776 95.7277 127.727L94.2385 127.479C93.7912 127.428 93.3606 127.279 92.9776 127.042C92.6819 126.833 92.4569 126.538 92.3323 126.198C92.2313 125.964 92.1885 125.709 92.2075 125.455C92.2265 125.201 92.3068 124.955 92.4415 124.739C92.7897 124.234 93.2909 123.855 93.8712 123.656C94.1382 123.555 94.414 123.478 94.6952 123.428C94.9619 123.39 95.2327 123.39 95.4994 123.428C95.7263 123.444 95.9483 123.501 96.1547 123.597C96.3308 123.683 96.4687 123.832 96.5419 124.014L96.9986 125.166L96.7007 125.275C96.4431 124.757 96.0253 124.335 95.5093 124.073C95.2923 123.983 95.0595 123.936 94.8243 123.936C94.5891 123.936 94.3562 123.983 94.1392 124.073C93.8321 124.174 93.5714 124.382 93.4045 124.659C93.343 124.786 93.3111 124.925 93.3111 125.066C93.3111 125.207 93.343 125.346 93.4045 125.473C93.4547 125.599 93.5289 125.714 93.623 125.811C93.7183 125.903 93.8292 125.977 93.9506 126.029C94.0838 126.072 94.2198 126.105 94.3576 126.129L94.8838 126.228L96.3731 126.466C96.8184 126.524 97.2511 126.655 97.6538 126.853C97.9618 127.032 98.1972 127.313 98.319 127.648C98.4296 127.902 98.4774 128.179 98.4584 128.455C98.4394 128.732 98.3541 129 98.2098 129.236C97.8166 129.808 97.2488 130.236 96.5915 130.457Z" fill="white"/>
<path d="M102.806 119.557L103.025 119.974L101.039 120.966L104.097 126.675L102.886 127.321L99.8278 121.612L99.1726 121.959C98.8831 122.094 98.6533 122.331 98.5272 122.624C98.4838 122.793 98.4764 122.968 98.5054 123.139C98.5345 123.31 98.5995 123.473 98.696 123.617L98.418 123.766L98.001 122.972C97.9512 122.88 97.9113 122.784 97.8819 122.684C97.8571 122.586 97.8571 122.484 97.8819 122.386C97.907 122.276 97.9581 122.174 98.0308 122.088C98.1314 121.974 98.2527 121.88 98.3882 121.81L102.806 119.557Z" fill="white"/>
<path d="M104.207 118.593L105.349 117.839L108.436 122.495C108.57 122.716 108.749 122.906 108.963 123.051C109.07 123.104 109.19 123.123 109.309 123.107C109.427 123.091 109.538 123.041 109.628 122.962L109.717 122.902L109.886 123.16L108.893 123.865C108.763 123.954 108.618 124.021 108.466 124.064C108.347 124.103 108.218 124.103 108.099 124.064C107.962 124.001 107.84 123.91 107.742 123.796C107.597 123.63 107.464 123.454 107.344 123.27L104.207 118.593Z" fill="white"/>
<path d="M111.576 113.073L111.864 113.441L110.156 114.821L114.227 119.864L113.154 120.728L109.094 115.684L108.508 116.151C108.252 116.342 108.07 116.616 107.992 116.925C107.977 117.108 108.003 117.291 108.066 117.462C108.129 117.634 108.229 117.789 108.359 117.918L108.111 118.117L107.555 117.422C107.489 117.339 107.433 117.249 107.386 117.154C107.338 117.062 107.317 116.959 107.326 116.856C107.329 116.744 107.36 116.635 107.416 116.538C107.494 116.409 107.595 116.295 107.714 116.201L111.576 113.073Z" fill="white"/>
<path d="M116.867 113.798C117.281 114.241 117.816 114.552 118.406 114.692C118.647 114.733 118.895 114.711 119.124 114.627C119.354 114.544 119.558 114.402 119.717 114.215C119.939 114.024 120.111 113.781 120.218 113.507C120.326 113.234 120.365 112.939 120.332 112.647C120.159 111.957 119.77 111.341 119.22 110.889L116.391 108.179L116.748 107.802L119.578 110.512C119.904 110.808 120.194 111.141 120.441 111.505C120.636 111.805 120.765 112.144 120.819 112.498C120.852 112.837 120.797 113.179 120.66 113.491C120.487 113.901 120.233 114.272 119.915 114.583C118.605 115.953 117.195 115.903 115.686 114.464L113.839 112.696C113.66 112.508 113.443 112.36 113.204 112.26C113.086 112.231 112.963 112.239 112.849 112.281C112.736 112.324 112.638 112.399 112.568 112.498L112.34 112.279L113.144 111.445C113.251 111.331 113.375 111.234 113.511 111.158C113.624 111.099 113.753 111.078 113.879 111.098C114.026 111.133 114.164 111.197 114.286 111.287C114.466 111.411 114.635 111.551 114.792 111.704L116.867 113.798Z" fill="white"/>
<path d="M121.273 101.854L121.66 102.142L120.35 103.91L125.552 107.762L124.738 108.864L119.536 105.002L119.089 105.607C118.884 105.851 118.778 106.163 118.791 106.481C118.82 106.658 118.888 106.826 118.989 106.973C119.09 107.121 119.223 107.244 119.377 107.335L119.198 107.583L118.473 107.057C118.392 106.989 118.316 106.916 118.245 106.838C118.183 106.76 118.138 106.668 118.116 106.57C118.086 106.46 118.086 106.343 118.116 106.233C118.159 106.088 118.23 105.954 118.324 105.836L121.273 101.854Z" fill="white"/>
<path d="M124.142 97.0092C124.214 96.8729 124.312 96.7516 124.43 96.6517C124.518 96.5854 124.62 96.5381 124.728 96.5127C124.825 96.4879 124.928 96.4879 125.026 96.5127C125.127 96.5413 125.224 96.5848 125.313 96.6418L126.098 97.0786L125.939 97.3566C125.798 97.2541 125.635 97.1848 125.463 97.1539C125.291 97.1229 125.114 97.1312 124.946 97.1779C124.625 97.3131 124.364 97.56 124.211 97.8729L123.367 99.3522L125.661 100.653L127.011 98.27L127.428 98.5083L126.068 100.881L128.59 102.321L129.473 100.752C129.663 100.457 129.757 100.11 129.741 99.7593C129.69 99.369 129.525 99.0027 129.265 98.7069L129.493 98.5083L130.059 99.1834C130.202 99.3337 130.31 99.5133 130.377 99.7096C130.403 99.8185 130.405 99.9319 130.383 100.042C130.361 100.152 130.315 100.255 130.248 100.345L128.322 103.731L123.477 100.971C123.253 100.831 123.003 100.74 122.742 100.702C122.534 100.702 122.345 100.812 122.186 101.09V101.179L121.918 101.02L124.142 97.0092Z" fill="white"/>
</svg>
