<svg xmlns="http://www.w3.org/2000/svg" viewBox="0 0 141.91 23.53"><defs><style>.cls-1{fill:#92c83d;}.cls-2{fill:#00677d;}.cls-3{fill:#1fc4f4;}.cls-4{fill:#fff;}</style></defs><g id="레이어_2" data-name="레이어 2"><g id="Layer_1" data-name="Layer 1"><path class="cls-1" d="M0,22.9V0H22.87V22.9Z"/><polygon class="cls-2" points="46.01 22.9 46.01 22.57 45.74 22.05 45.74 0.02 22.87 0.02 22.87 22.9 31.14 22.9 31.14 22.16 36.93 22.16 36.93 22.9 46.01 22.9"/><polygon class="cls-3" points="45.74 0.02 45.74 10.4 43.35 15.6 45.74 20.89 46.26 22.16 52.1 22.16 52.1 22.9 68.61 22.9 68.61 0.02 45.74 0.02"/><path class="cls-4" d="M36.05,18.87c0-1.24-1.51-1.61-2.41-1.87l-.13,0c-2.59-.74-4-2.17-4.1-4.25a3.84,3.84,0,0,1,1.1-2.94,5.46,5.46,0,0,1,4-1.63,9.41,9.41,0,0,1,4.39,1.17l-1.31,2.58a4.39,4.39,0,0,0-2.53-1c-1.17,0-1.92.54-1.92,1.46s1.2,1.45,1.9,1.68l1,.3c2.26.68,3.45,1.91,3.6,3.87a4.61,4.61,0,0,1-1.55,3.87,6.23,6.23,0,0,1-4.09,1.31,9.13,9.13,0,0,1-5-1.62c.06-.1,1.36-2.57,1.43-2.71a5.47,5.47,0,0,0,3.4,1.49C34.94,20.59,36.05,20.09,36.05,18.87Z"/><path class="cls-4" d="M41.49,15.87a7.55,7.55,0,0,1,13.62-4.59l-2.76,2.08a4.13,4.13,0,0,0-3.29-1.67,4.09,4.09,0,0,0-4,4.18,4.08,4.08,0,0,0,4,4.17,4.15,4.15,0,0,0,3.24-1.6l2.76,2.08a7.54,7.54,0,0,1-13.57-4.65Z"/><path class="cls-4" d="M65.23,8.52v5.63H60.84V8.52H57.41V23.19h3.43v-6.1h4.39v6.1h3.43V8.52Z"/><path class="cls-2" d="M97.94,15.74A2.39,2.39,0,0,1,97.21,14a2.35,2.35,0,0,1,.73-1.71,2.42,2.42,0,0,1,1.71-.72,2.45,2.45,0,0,1,1.91.94l-.82.62a1.35,1.35,0,0,0-1.06-.52,1.39,1.39,0,0,0-1.36,1.41,1.35,1.35,0,0,0,2.4.87l.83.62a2.49,2.49,0,0,1-1.9.92A2.42,2.42,0,0,1,97.94,15.74Z"/><path class="cls-2" d="M87.32,18.23v4.53h-1V18.23Z"/><path class="cls-2" d="M106.49,18.23v4.53h-1V18.23Z"/><path class="cls-2" d="M92.65,18.23c0,.1-2,4.49-2,4.53h-.9s-1.89-4.43-1.93-4.53h1.2l1.19,3s1.19-2.95,1.2-3Z"/><path class="cls-2" d="M96.13,18.23v.88H94.27V20h1.79v.87H94.27v1h1.86v.87H93.22V18.23Z"/><path class="cls-2" d="M99.41,20.87h.11a1.21,1.21,0,0,0,1-1.26c0-.87-.59-1.37-1.61-1.37H97.19v4.53h1.07V20.83l1.32,1.93h1.34Zm-.94-.55h-.21V19h.21c.23,0,1,0,1,.64S98.7,20.32,98.47,20.32Z"/><path class="cls-2" d="M110.58,18.23v.9h-1.07v3.63h-1.1V19.13h-1.08v-.9Z"/><path class="cls-2" d="M81.65,11.63A2.42,2.42,0,1,0,84.15,14,2.42,2.42,0,0,0,81.65,11.63Zm0,3.81A1.43,1.43,0,0,1,80.25,14a1.41,1.41,0,0,1,2.81,0A1.43,1.43,0,0,1,81.65,15.44Z"/><path class="cls-2" d="M87.19,11.63A2.42,2.42,0,1,0,89.69,14,2.43,2.43,0,0,0,87.19,11.63Zm0,3.81A1.42,1.42,0,0,1,85.79,14a1.4,1.4,0,0,1,2.8,0A1.43,1.43,0,0,1,87.19,15.44Z"/><path class="cls-2" d="M93.83,11.78v3l-2.33-3H90.37v4.53h1.07v-3l2.33,3h1.12V11.78Z"/><path class="cls-2" d="M84.12,18.23v3l-2.33-3H80.67v4.53h1.07v-3l2.33,3H85.2V18.23Z"/><path class="cls-2" d="M115.41,11.78v3l-2.33-3H112v4.53H113v-3l2.33,3h1.12V11.78Z"/><path class="cls-2" d="M135.4,11.78v3l-2.33-3H132v4.53H133v-3l2.33,3h1.12V11.78Z"/><path class="cls-2" d="M77.62,15c0-.42-.51-.57-.81-.65h0c-.82-.24-1.26-.69-1.3-1.34a1.22,1.22,0,0,1,.35-.94,1.72,1.72,0,0,1,1.27-.52,3,3,0,0,1,1.37.36l-.39.77a1.31,1.31,0,0,0-.8-.29c-.4,0-.65.2-.65.52s.39.49.62.57l.34.1a1.35,1.35,0,0,1,1.13,1.24A1.42,1.42,0,0,1,78.23,16a2,2,0,0,1-1.29.43A2.86,2.86,0,0,1,75.38,16l.42-.81a1.79,1.79,0,0,0,1.09.45A.65.65,0,0,0,77.62,15Z"/><path class="cls-2" d="M111,11.78v2.55a2,2,0,0,1-.46,1.6,2.5,2.5,0,0,1-3,0,2,2,0,0,1-.47-1.6V11.78h1.07v2.39c0,.5,0,1.34.9,1.34s.9-.84.9-1.34V11.78Z"/><path class="cls-2" d="M105.08,11.78v1.7h-1.8v-1.7h-1.07V16.3h1.07V14.4h1.8v1.9h1.07V11.78Z"/><path class="cls-2" d="M121.81,11.78v1.7H120v-1.7h-1.07V16.3H120V14.4h1.8v1.9h1.07V11.78Z"/><path class="cls-2" d="M127.49,11.78l-1.65,2.32s0,2.14,0,2.21h-1.06V14.12l-1.66-2.34h1.27l.92,1.33.91-1.33Z"/><path class="cls-2" d="M115.15,18.23l-1.65,2.33v2.2h-1.07V20.58l-1.66-2.35h1.28l.91,1.33.92-1.33Z"/><path class="cls-2" d="M129.8,11.78h-1.22s-1.71,4.43-1.75,4.53H128s.29-.82.29-.82h1.85s.25.77.27.82h1.13C131.47,16.21,129.82,11.83,129.8,11.78Zm-1.26,2.93.61-1.69,0-.1.63,1.79Z"/><path class="cls-2" d="M137.8,15.74a2.37,2.37,0,0,1-.75-1.72,2.4,2.4,0,0,1,.74-1.72,2.43,2.43,0,0,1,3.64.24l-.44.31-.43.3a1.33,1.33,0,0,0-1-.52A1.34,1.34,0,0,0,138.16,14a1.39,1.39,0,0,0,.4,1,1.34,1.34,0,0,0,1,.39,1.24,1.24,0,0,0,1.18-.75h-1.1v-.8h2.3V14a2.52,2.52,0,0,1-.47,1.54,2.45,2.45,0,0,1-1.9,1A2.54,2.54,0,0,1,137.8,15.74Z"/><path class="cls-2" d="M103.46,21.48c0-.43-.5-.58-.8-.66h0c-.82-.24-1.26-.69-1.3-1.34a1.23,1.23,0,0,1,.35-.94,1.69,1.69,0,0,1,1.27-.51,3,3,0,0,1,1.37.36l-.39.76a1.4,1.4,0,0,0-.8-.29c-.4,0-.65.2-.65.52s.39.5.62.58l.34.1a1.35,1.35,0,0,1,1.13,1.23,1.44,1.44,0,0,1-.48,1.22,2.05,2.05,0,0,1-1.3.43,2.87,2.87,0,0,1-1.55-.49s.39-.74.42-.81a1.74,1.74,0,0,0,1.09.45C103.09,22.08,103.46,21.9,103.46,21.48Z"/><path class="cls-2" d="M79.63,18.23v2.56a2,2,0,0,1-.47,1.59,2.13,2.13,0,0,1-1.5.5,2.11,2.11,0,0,1-1.49-.5,2,2,0,0,1-.47-1.59V18.23h1.06v2.39c0,.5,0,1.35.9,1.35s.9-.85.9-1.35V18.23Z"/><path class="cls-2" d="M75.31,3.44v1H78.4V5.73h1.25V4.44h2.76v-1h-7.1Z"/><path class="cls-2" d="M77.37,5H76.12v2.7h5.51v-1H77.37Z"/><path class="cls-2" d="M78.86,1,81,3l.89-.65L79.54.13H78.18L75.87,2.36l.88.65Z"/><path class="cls-2" d="M88.58,5.41h1.24V.31H88.58V1.87h-1v1h1Z"/><path class="cls-2" d="M85.87,4.71H84.62v3h5.23v-1h-4Z"/><polygon class="cls-2" points="86.55 4.13 87.59 3.8 86.37 1.56 87.46 1.56 87.46 0.63 85.97 0.63 85.97 0 84.77 0 84.77 0.63 83.29 0.63 83.29 1.56 84.38 1.56 83.15 3.8 84.2 4.13 85.37 1.94 86.55 4.13"/><path class="cls-2" d="M95.44,4.16a2,2,0,1,0,2,2A2,2,0,0,0,95.44,4.16Zm0,2.87a.89.89,0,1,1,.89-.89A.89.89,0,0,1,95.45,7Z"/><polygon class="cls-2" points="97.51 0.31 96.28 0.31 96.28 3.94 97.51 3.94 97.51 3.2 98.48 3.2 98.48 2.34 97.51 2.34 97.51 1.87 98.48 1.87 98.48 0.99 97.51 0.99 97.51 0.31"/><polygon class="cls-2" points="100.9 1.33 102.77 1.33 102.77 0.36 99.67 0.36 99.67 5.2 99.67 5.21 102.81 5.21 102.81 4.21 100.9 4.21 100.9 1.33"/><polygon class="cls-2" points="105.16 1.89 104.63 1.89 104.63 0.25 103.51 0.25 103.51 7.68 104.63 7.68 104.63 2.88 105.16 2.88 105.16 7.68 106.28 7.68 106.28 0.25 105.16 0.25 105.16 1.89"/><polygon class="cls-2" points="113.84 0.32 112.61 0.32 112.61 4.82 108.56 4.82 108.56 5.79 112.61 5.79 112.61 7.68 113.84 7.68 113.84 2.88 114.83 2.88 114.83 1.89 113.84 1.89 113.84 0.32"/><polygon class="cls-2" points="119.7 6.33 119.7 3.74 118.56 3.74 118.56 6.33 117.79 6.33 117.79 3.74 116.65 3.74 116.65 6.33 115.31 6.33 115.31 7.32 122.13 7.32 122.13 6.33 119.7 6.33"/><polygon class="cls-2" points="120.42 4.91 121.65 4.91 121.65 0.45 116.13 0.45 116.13 1.43 120.42 1.43 120.42 4.91"/><path class="cls-2" d="M111.5,2.45a1.77,1.77,0,0,0-.24-.89h.64V.63h-1.61V0h-1.21V.63h-1.62v.93h.61a1.77,1.77,0,0,0-.24.89,1.84,1.84,0,0,0,3.67,0Zm-2.59,0a.76.76,0,1,1,.75.75A.76.76,0,0,1,108.91,2.45Z"/><path class="cls-2" d="M95.12,2.38a1.75,1.75,0,0,0-.21-.82h.62V.63H93.91V0H92.7V.63H91.08v.93h.58a1.88,1.88,0,0,0-.21.82,1.84,1.84,0,0,0,3.67,0Zm-1.83.76a.75.75,0,0,1-.75-.76.75.75,0,1,1,1.5,0A.76.76,0,0,1,93.29,3.14Z"/></g></g></svg>