<svg xmlns="http://www.w3.org/2000/svg" viewBox="0 0 179.81 24.28"><defs><style>.cls-1{fill:#009e4d;}.cls-2{fill:#fff;}</style></defs><g id="레이어_2" data-name="레이어 2"><g id="Layer_1" data-name="Layer 1"><path class="cls-1" d="M33.89,16.48a2.28,2.28,0,0,0-.57-1.14,1.54,1.54,0,0,0-1.09-.4,1.83,1.83,0,0,0-.71.13,1.29,1.29,0,0,0-.57.42,2.33,2.33,0,0,0-.39.79,4.86,4.86,0,0,0-.13,1.24,4.6,4.6,0,0,0,.09.91,2.66,2.66,0,0,0,.32.77,1.64,1.64,0,0,0,.55.53,1.59,1.59,0,0,0,.84.21,1.93,1.93,0,0,0,1-.3,2.07,2.07,0,0,0,.78-.87l.29.22a2.57,2.57,0,0,1-.94,1A2.76,2.76,0,0,1,32,20.3a3,3,0,0,1-1.15-.21A2.36,2.36,0,0,1,30,19.5a2.5,2.5,0,0,1-.52-.88,3.3,3.3,0,0,1-.18-1.1,3.41,3.41,0,0,1,.2-1.16,3.14,3.14,0,0,1,.57-.93,2.81,2.81,0,0,1,.85-.63A2.58,2.58,0,0,1,32,14.57a3.08,3.08,0,0,1,1.24.21,1.81,1.81,0,0,1,.7.46,1,1,0,0,1,.19.55c0,.22,0,.45,0,.69Z"/><path class="cls-1" d="M35.65,17.44a3.24,3.24,0,0,1,.2-1.13,2.7,2.7,0,0,1,.55-.91,2.5,2.5,0,0,1,.85-.61,2.82,2.82,0,0,1,1.11-.22,2.77,2.77,0,0,1,1.1.22,2.5,2.5,0,0,1,.85.61,2.7,2.7,0,0,1,.55.91,3.46,3.46,0,0,1,0,2.26,2.7,2.7,0,0,1-.55.91,2.47,2.47,0,0,1-.85.6,2.6,2.6,0,0,1-1.1.22,2.65,2.65,0,0,1-1.11-.22,2.47,2.47,0,0,1-.85-.6,2.7,2.7,0,0,1-.55-.91A3.24,3.24,0,0,1,35.65,17.44Zm4.27,0a3.52,3.52,0,0,0-.41-1.85,1.34,1.34,0,0,0-2.3,0,3.52,3.52,0,0,0-.41,1.85,3.52,3.52,0,0,0,.41,1.85,1.34,1.34,0,0,0,2.3,0A3.52,3.52,0,0,0,39.92,17.44Z"/><path class="cls-1" d="M46.77,18.5V14.74h.41v5.42H46.8l-3.47-4.07v4.05h-.41V15.72a1.36,1.36,0,0,0,0-.29.46.46,0,0,0-.12-.23.56.56,0,0,0-.23-.16.88.88,0,0,0-.35-.06h0v-.24h.58a2,2,0,0,1,.75.12,1.11,1.11,0,0,1,.48.37Z"/><path class="cls-1" d="M52.15,14.74a1.13,1.13,0,0,1,.35,0,.57.57,0,0,1,.21.15.43.43,0,0,1,.11.21,1,1,0,0,1,0,.24v.7H52.6a1,1,0,0,0-.26-.76,1.15,1.15,0,0,0-.76-.22H50.44v2.08h1.8v.37h-1.8v2.58H49.38V15.8a1.42,1.42,0,0,0-.1-.59.47.47,0,0,0-.47-.23h-.09v-.24Z"/><path class="cls-1" d="M55.66,18A2.37,2.37,0,0,0,56,19.37a1.09,1.09,0,0,0,1,.48,1.4,1.4,0,0,0,1.21-.5,2.54,2.54,0,0,0,.38-1.57v-3H59v3a4.52,4.52,0,0,1-.11,1,1.86,1.86,0,0,1-.38.77,1.58,1.58,0,0,1-.67.48,2.71,2.71,0,0,1-1,.16c-1.47,0-2.21-.81-2.21-2.44v-2a1.42,1.42,0,0,0-.1-.59A.46.46,0,0,0,54,15v-.24h.9a1.25,1.25,0,0,1,.36,0,.5.5,0,0,1,.23.18,1.07,1.07,0,0,1,.12.32,3.68,3.68,0,0,1,0,.51Z"/><path class="cls-1" d="M65.24,16.48a2.2,2.2,0,0,0-.57-1.14,1.54,1.54,0,0,0-1.09-.4,1.87,1.87,0,0,0-.71.13,1.35,1.35,0,0,0-.57.42,2.16,2.16,0,0,0-.38.79,4.41,4.41,0,0,0-.14,1.24,4,4,0,0,0,.1.91,2.39,2.39,0,0,0,.31.77,1.67,1.67,0,0,0,.56.53,1.53,1.53,0,0,0,.83.21,1.91,1.91,0,0,0,1-.3,2.07,2.07,0,0,0,.78-.87l.29.22a2.57,2.57,0,0,1-.94,1,2.76,2.76,0,0,1-1.42.32,3,3,0,0,1-1.15-.21,2.32,2.32,0,0,1-.84-.59,2.53,2.53,0,0,1-.53-.88,3.3,3.3,0,0,1-.18-1.1,3.19,3.19,0,0,1,.21-1.16,2.92,2.92,0,0,1,.56-.93,2.85,2.85,0,0,1,.86-.63,2.57,2.57,0,0,1,1.07-.23,3,3,0,0,1,1.24.21,1.74,1.74,0,0,1,.7.46,1,1,0,0,1,.19.55c0,.22,0,.45,0,.69Z"/><path class="cls-1" d="M67.35,14.74h1.06v4.34a1.41,1.41,0,0,0,.11.59c.07.15.22.22.47.22h.08v.25h-1a1.25,1.25,0,0,1-.36-.05.44.44,0,0,1-.23-.17.85.85,0,0,1-.12-.33,3.58,3.58,0,0,1,0-.51Z"/><path class="cls-1" d="M71.76,18a2.55,2.55,0,0,0,.33,1.34,1.1,1.1,0,0,0,1,.48,1.41,1.41,0,0,0,1.22-.5,2.61,2.61,0,0,0,.38-1.57v-3h.41v3a4,4,0,0,1-.12,1,1.84,1.84,0,0,1-.37.77,1.58,1.58,0,0,1-.67.48,2.74,2.74,0,0,1-1,.16c-1.47,0-2.21-.81-2.21-2.44v-2a1.42,1.42,0,0,0-.1-.59.47.47,0,0,0-.47-.23v-.24H71a1.13,1.13,0,0,1,.35,0,.46.46,0,0,1,.23.18.71.71,0,0,1,.12.32,3.68,3.68,0,0,1,0,.51Z"/><path class="cls-1" d="M78.67,20.28a3.05,3.05,0,0,1-.67-.07,2,2,0,0,1-.59-.19,1.29,1.29,0,0,1-.43-.31.59.59,0,0,1-.16-.41v-1h.24a2,2,0,0,0,.53,1.21,1.53,1.53,0,0,0,1.08.36,1.27,1.27,0,0,0,.74-.2.67.67,0,0,0,.28-.59.82.82,0,0,0-.22-.59,3.43,3.43,0,0,0-.62-.47l-1-.6a2.45,2.45,0,0,1-.78-.67,1.39,1.39,0,0,1-.23-.8,1.21,1.21,0,0,1,.49-1,2.18,2.18,0,0,1,1.34-.38,3.05,3.05,0,0,1,.67.07,2.4,2.4,0,0,1,.59.19,1.29,1.29,0,0,1,.43.31.59.59,0,0,1,.16.41v1h-.25a2,2,0,0,0-.52-1.21,1.38,1.38,0,0,0-1-.36,1.05,1.05,0,0,0-.69.21.72.72,0,0,0-.26.58.75.75,0,0,0,.06.31.83.83,0,0,0,.18.25,1.43,1.43,0,0,0,.26.22c.11.07.22.15.35.22l1,.6a3,3,0,0,1,.81.64,1.14,1.14,0,0,1,.26.77,1.33,1.33,0,0,1-.53,1.11A2.46,2.46,0,0,1,78.67,20.28Z"/><path class="cls-1" d="M88.22,14.74h1.06v4.34a1.61,1.61,0,0,0,.1.59c.07.15.23.22.48.22h.08v.25H89a1.2,1.2,0,0,1-.36-.05.44.44,0,0,1-.23-.17.71.71,0,0,1-.12-.33,3.58,3.58,0,0,1,0-.51Z"/><path class="cls-1" d="M95.53,18.5V14.74h.41v5.42h-.38l-3.47-4.07v4.05h-.41V15.72a1.36,1.36,0,0,0,0-.29.46.46,0,0,0-.12-.23A.56.56,0,0,0,91.3,15a.9.9,0,0,0-.36-.06h0v-.24h.58a2,2,0,0,1,.75.12,1.11,1.11,0,0,1,.48.37Z"/><path class="cls-1" d="M99.59,20.28a3,3,0,0,1-.66-.07,2.22,2.22,0,0,1-.6-.19,1.35,1.35,0,0,1-.42-.31.6.6,0,0,1-.17-.41v-1H98a2,2,0,0,0,.53,1.21,1.52,1.52,0,0,0,1.07.36,1.3,1.3,0,0,0,.75-.2.69.69,0,0,0,.28-.59.82.82,0,0,0-.23-.59,3.11,3.11,0,0,0-.62-.47l-1-.6a2.5,2.5,0,0,1-.79-.67,1.47,1.47,0,0,1-.23-.8,1.22,1.22,0,0,1,.5-1,2.16,2.16,0,0,1,1.34-.38,3,3,0,0,1,.66.07,2.64,2.64,0,0,1,.6.19,1.35,1.35,0,0,1,.42.31.6.6,0,0,1,.17.41v1h-.25a2.1,2.1,0,0,0-.52-1.21,1.41,1.41,0,0,0-1-.36,1.08,1.08,0,0,0-.7.21.72.72,0,0,0-.25.58.75.75,0,0,0,.06.31,1,1,0,0,0,.17.25,1.52,1.52,0,0,0,.27.22,3.56,3.56,0,0,0,.35.22l1,.6a3,3,0,0,1,.81.64,1.19,1.19,0,0,1,.26.77,1.33,1.33,0,0,1-.53,1.11A2.51,2.51,0,0,1,99.59,20.28Z"/><path class="cls-1" d="M107.44,14.74v.37h-1.71v5h-1.06v-5h-.58a1.05,1.05,0,0,0-.69.21,1,1,0,0,0-.25.77h-.25v-.7a1,1,0,0,1,0-.24.43.43,0,0,1,.11-.21.57.57,0,0,1,.21-.15,1.13,1.13,0,0,1,.35,0Z"/><path class="cls-1" d="M108.94,14.74H110v4.34a1.41,1.41,0,0,0,.11.59c.06.15.22.22.47.22h.08v.25h-1a1.25,1.25,0,0,1-.36-.05.44.44,0,0,1-.23-.17.85.85,0,0,1-.12-.33,3.58,3.58,0,0,1,0-.51Z"/><path class="cls-1" d="M116.27,14.74v.37h-1.71v5H113.5v-5h-.58a1.05,1.05,0,0,0-.69.21,1,1,0,0,0-.25.77h-.25v-.7a1,1,0,0,1,0-.24.43.43,0,0,1,.11-.21.57.57,0,0,1,.21-.15,1.13,1.13,0,0,1,.35,0Z"/><path class="cls-1" d="M119,18a2.37,2.37,0,0,0,.33,1.34,1.1,1.1,0,0,0,1,.48,1.39,1.39,0,0,0,1.21-.5,2.53,2.53,0,0,0,.39-1.57v-3h.41v3a4,4,0,0,1-.12,1,2,2,0,0,1-.37.77,1.65,1.65,0,0,1-.67.48,2.78,2.78,0,0,1-1,.16c-1.48,0-2.21-.81-2.21-2.44v-2a1.61,1.61,0,0,0-.1-.59.48.48,0,0,0-.48-.23v-.24h.91a1.18,1.18,0,0,1,.35,0,.5.5,0,0,1,.23.18.71.71,0,0,1,.12.32,3.68,3.68,0,0,1,0,.51Z"/><path class="cls-1" d="M128.29,14.74v.37h-1.71v5h-1.06v-5h-.58a1.05,1.05,0,0,0-.69.21,1,1,0,0,0-.25.77h-.25v-.7a1,1,0,0,1,0-.24.53.53,0,0,1,.11-.21.57.57,0,0,1,.21-.15,1.13,1.13,0,0,1,.35,0Z"/><path class="cls-1" d="M132.88,14.74a1.06,1.06,0,0,1,.34,0,.53.53,0,0,1,.22.15.41.41,0,0,1,.1.21,1,1,0,0,1,0,.24v.7h-.24a.93.93,0,0,0-.27-.75,1.1,1.1,0,0,0-.76-.23H131v2h2.13v.37H131v2.25h1.4a1.33,1.33,0,0,0,.76-.2,1.48,1.48,0,0,0,.53-.73l.22.08-.24.65a1.07,1.07,0,0,1-.23.41.62.62,0,0,1-.48.16h-3V15.8a1.42,1.42,0,0,0-.1-.59.46.46,0,0,0-.47-.23h-.08v-.24Z"/><path class="cls-1" d="M60.65,9.12a3.32,3.32,0,0,1,0-4.77,3.39,3.39,0,0,1,2.39-1A3.43,3.43,0,0,1,65.7,4.67l-1.14.86a2,2,0,0,0-1.48-.73,1.93,1.93,0,0,0-1.89,2A1.88,1.88,0,0,0,64.53,8l1.15.86A3.45,3.45,0,0,1,63,10.11,3.39,3.39,0,0,1,60.65,9.12Z"/><path class="cls-1" d="M141.1,3.73V10h-1.47V3.73Z"/><path class="cls-1" d="M167.77,3.73V10H166.3V3.73Z"/><path class="cls-1" d="M148.51,3.73c-.06.13-2.71,6.24-2.73,6.3h-1.24c0-.06-2.63-6.17-2.69-6.3h1.67l1.66,4.16s1.64-4.1,1.67-4.16Z"/><path class="cls-1" d="M153.36,3.73V4.94h-2.6V6.22h2.49V7.44h-2.49V8.81h2.6V10H149.3V3.73Z"/><path class="cls-1" d="M157.92,7.4l.08,0h.06a1.68,1.68,0,0,0,1.4-1.75c0-1.21-.82-1.9-2.25-1.9h-2.39V10h1.49V7.34L158.15,10H160Zm-1.31-.78h-.3V4.84h.3c.32,0,1.36,0,1.36.9S156.93,6.62,156.61,6.62Z"/><path class="cls-1" d="M173.45,3.73V5H172v5h-1.53V5h-1.5V3.73Z"/><path class="cls-1" d="M38,3.4a3.36,3.36,0,1,0,3.48,3.24A3.37,3.37,0,0,0,38,3.4Zm0,5.3a2,2,0,0,1-2-2.06,2,2,0,0,1,3.91,0A2,2,0,0,1,38,8.7Z"/><path class="cls-1" d="M45.7,3.4a3.36,3.36,0,1,0,3.49,3.24A3.37,3.37,0,0,0,45.7,3.4Zm0,5.3a2,2,0,0,1-2-2.06,2,2,0,0,1,3.91,0A2,2,0,0,1,45.7,8.7Z"/><path class="cls-1" d="M54.94,3.61V7.8L51.7,3.61H50.13v6.3h1.49V5.69l3.24,4.22h1.56V3.61Z"/><path class="cls-1" d="M136.65,3.73V7.92l-3.24-4.19h-1.56V10h1.48V5.81L136.57,10h1.57V3.73Z"/><path class="cls-1" d="M85,3.61V7.8L81.72,3.61H80.16v6.3h1.48V5.69l3.25,4.22h1.55V3.61Z"/><path class="cls-1" d="M112.77,3.61V7.8l-3.25-4.19H108v6.3h1.49V5.69l3.24,4.22h1.56V3.61Z"/><path class="cls-1" d="M32.38,8.12c0-.59-.69-.79-1.11-.91l-.06,0q-1.73-.5-1.8-1.86A1.73,1.73,0,0,1,29.88,4a2.42,2.42,0,0,1,1.78-.71,4.06,4.06,0,0,1,1.9.5c0,.08-.49,1-.54,1.06a1.91,1.91,0,0,0-1.11-.4c-.56,0-.91.28-.91.73s.54.68.87.79l.47.14a1.89,1.89,0,0,1,1.57,1.72,2,2,0,0,1-.67,1.69,2.73,2.73,0,0,1-1.8.6,4,4,0,0,1-2.16-.67c0-.09.54-1,.59-1.13A2.42,2.42,0,0,0,31.38,9,.9.9,0,0,0,32.38,8.12Z"/><path class="cls-1" d="M78.86,3.61V7.16a2.87,2.87,0,0,1-.65,2.23,3.5,3.5,0,0,1-4.17,0,2.83,2.83,0,0,1-.65-2.23V3.61h1.48V6.93c0,.7,0,1.87,1.25,1.87s1.26-1.17,1.26-1.87V3.61Z"/><path class="cls-1" d="M70.59,3.6V6h-2.5V3.6H66.6V9.9h1.49V7.25h2.5V9.9h1.49V3.6Z"/><path class="cls-1" d="M93.87,3.6V6H91.36V3.6H89.87V9.9h1.49V7.25h2.51V9.9h1.49V3.6Z"/><path class="cls-1" d="M101.76,3.61l-2.3,3.23V9.91H98v-3S96,4,95.67,3.61h1.77l1.27,1.85S100,3.65,100,3.61Z"/><path class="cls-1" d="M179.81,3.73,177.52,7s0,3,0,3.07H176V7s-2-2.86-2.3-3.26h1.77l1.27,1.85L178,3.73Z"/><path class="cls-1" d="M105,3.61h-1.7l-2.42,6.3h1.57l.4-1.13h2.57s.35,1.07.38,1.13h1.58Zm-1.76,4.08.86-2.36.05-.13L105,7.69Z"/><path class="cls-1" d="M116.11,9.12a3.3,3.3,0,0,1,0-4.79,3.4,3.4,0,0,1,5.07.33l-.62.44-.59.42a1.87,1.87,0,0,0-3.35,1.21,2,2,0,0,0,.56,1.39,1.93,1.93,0,0,0,1.35.55,1.72,1.72,0,0,0,1.64-1.06h-1.53V6.49h3.2v.14a3.56,3.56,0,0,1-.65,2.15,3.43,3.43,0,0,1-2.64,1.32A3.52,3.52,0,0,1,116.11,9.12Z"/><path class="cls-1" d="M163.55,8.24c0-.59-.7-.8-1.12-.91l-.06,0c-1.14-.33-1.75-.95-1.8-1.86a1.74,1.74,0,0,1,.48-1.31,2.42,2.42,0,0,1,1.77-.71,4.14,4.14,0,0,1,1.91.5L164.18,5a2,2,0,0,0-1.1-.41c-.56,0-.92.29-.92.73s.55.69.88.8l.46.14A1.9,1.9,0,0,1,165.08,8a2,2,0,0,1-.68,1.69,2.78,2.78,0,0,1-1.79.6,4,4,0,0,1-2.17-.68s.55-1,.59-1.12a2.42,2.42,0,0,0,1.51.62A.9.9,0,0,0,163.55,8.24Z"/><path class="cls-1" d="M130.39,3.73V7.28a2.83,2.83,0,0,1-.64,2.22,3,3,0,0,1-2.09.7,2.93,2.93,0,0,1-2.08-.7,2.83,2.83,0,0,1-.65-2.22V3.73h1.48V7.05c0,.7,0,1.87,1.25,1.87s1.25-1.17,1.25-1.87V3.73Z"/><path class="cls-1" d="M12.14,24.28A12.14,12.14,0,1,1,24.28,12.14,12.16,12.16,0,0,1,12.14,24.28Zm0-24A11.82,11.82,0,1,0,24,12.14,11.83,11.83,0,0,0,12.14.33Z"/><path class="cls-1" d="M12.14,3.64a8.5,8.5,0,1,1-8.5,8.5A8.5,8.5,0,0,1,12.14,3.64ZM.65,12.14A11.49,11.49,0,1,0,12.14.65,11.48,11.48,0,0,0,.65,12.14Z"/><path class="cls-1" d="M12.56,6.79l-.82-.74s-4.88,5.23,1.07,8C12.81,14.08,8,11.65,12.56,6.79Z"/><path class="cls-1" d="M10.25,6.35l-.8-.56s-3.72,6,1.88,8.52C11.33,14.31,7.14,12.62,10.25,6.35Z"/><path class="cls-1" d="M8.11,6.15l-.79-.56s-3.21,6.17,2.92,9.22C10.24,14.81,5.74,13.14,8.11,6.15Z"/><path class="cls-1" d="M15.14,7.63a4.28,4.28,0,0,0-2.05.66,5.91,5.91,0,0,0,1.23.34A5.6,5.6,0,0,1,15.14,7.63Z"/><path class="cls-1" d="M14.54,8.67a6.25,6.25,0,0,0,1.78,0,5.71,5.71,0,0,0-.84-1h0A5,5,0,0,0,14.54,8.67Z"/><path class="cls-1" d="M17.62,8.27a4.3,4.3,0,0,0-1.85-.65,6.67,6.67,0,0,1,.77,1A5.89,5.89,0,0,0,17.62,8.27Z"/><path class="cls-1" d="M16.44,8.84a6.55,6.55,0,0,1-1,.09,5.8,5.8,0,0,1-1-.08,3.65,3.65,0,0,0-.18.34,4.18,4.18,0,0,0-.39,1.23h3.21A4.83,4.83,0,0,0,16.44,8.84Z"/><path class="cls-1" d="M14.06,9.1l.15-.28a6.08,6.08,0,0,1-1.32-.4,3.64,3.64,0,0,0-1.27,2h2A4,4,0,0,1,14.06,9.1Z"/><path class="cls-1" d="M13.63,10.62H11.57a3.69,3.69,0,0,0-.07.62,3.05,3.05,0,0,0,.42,1.51,7.24,7.24,0,0,1,1.85-.67A4.48,4.48,0,0,1,13.63,10.62Z"/><path class="cls-1" d="M16.86,12,17,12l.06-.17A1.06,1.06,0,0,0,16.86,12Z"/><path class="cls-1" d="M17.32,11a3.22,3.22,0,0,1-.17,1.08,9.43,9.43,0,0,1,2.16.72,4.55,4.55,0,0,0,.08-.84,6.91,6.91,0,0,0-.18-1.31H17.29C17.31,10.73,17.31,10.85,17.32,11Z"/><path class="cls-1" d="M17.26,10.42h1.89a3.7,3.7,0,0,0-1.35-2,6,6,0,0,1-1.15.39A4.75,4.75,0,0,1,17.26,10.42Z"/><path class="cls-1" d="M16.31,11.11a.6.6,0,0,1,.48.25.51.51,0,0,0,.29.18,3.43,3.43,0,0,0,0-.56,2,2,0,0,0,0-.36H13.82A4.07,4.07,0,0,0,14,12H14a8.72,8.72,0,0,1,1.46-.14C15.94,11.11,16.31,11.11,16.31,11.11Z"/><path class="cls-1" d="M16.23,13.52v.1a2.43,2.43,0,0,1-.94,2.09c-1.9,1.32-6,2.09-6,2.09a5.16,5.16,0,0,0,1.26-.13,2.15,2.15,0,0,1-.71.27,7.06,7.06,0,0,0,1.23-.11,5.62,5.62,0,0,1-1.78.45,5,5,0,0,0,1.49-.08,4.34,4.34,0,0,1-1.36.4,15.59,15.59,0,0,0,1.94-.13,5,5,0,0,1-1.43.5c7.26-.25,9-4.1,9.34-6a9.37,9.37,0,0,0-2.19-.73A3.82,3.82,0,0,1,16.23,13.52Z"/><path class="cls-1" d="M14,12.23a5.14,5.14,0,0,0,.43,1,5,5,0,0,0,.93-1.11,7.92,7.92,0,0,0-1.3.13Z"/><path class="cls-1" d="M16.71,12.18a2.4,2.4,0,0,0-.43,1,3.87,3.87,0,0,0,.6-1Z"/><path class="cls-1" d="M12,12.91a2,2,0,0,0,1.38.74,1.5,1.5,0,0,0,.88-.33,5.32,5.32,0,0,1-.47-1.05A6.69,6.69,0,0,0,12,12.91Z"/><path class="cls-2" d="M4.87,6a.63.63,0,0,1-.48-.19.64.64,0,0,1-.21-.47.68.68,0,0,1,.2-.49.71.71,0,0,1,.56-.2l0,.29a.38.38,0,0,0-.29.66.38.38,0,0,0,.54,0,.42.42,0,0,0,.1-.31l.28,0a.68.68,0,0,1-.18.56A.67.67,0,0,1,4.87,6Z"/><path class="cls-2" d="M19.36,4.4s-.84.92-.86.93-.2-.18-.21-.2.83-.92.85-.93Z"/><path class="cls-2" d="M22.2,9,21,9.34s-.08-.27-.09-.28l1.21-.37S22.19,9,22.2,9Z"/><path class="cls-2" d="M20.34,5.46,19,5.91l-.17-.19s.55-1.22.57-1.25l.22.25s-.39.81-.39.81l.84-.32Z"/><path class="cls-2" d="M20.88,6.22l-.2.14-.3-.42-.21.15.29.4-.2.14L20,6.22l-.23.16.3.43-.2.14-.46-.66s1-.72,1-.73Z"/><path class="cls-2" d="M20.73,7.4h0a.35.35,0,0,0,.45.07c.21-.12.25-.33.1-.58l-.23-.42L20,7.11l.14.27.47-.27-.28.59.18.32S20.73,7.4,20.73,7.4Zm0-.31,0,0L21,6.86l0,0c0,.06.13.24,0,.33S20.77,7.15,20.74,7.09Z"/><path class="cls-2" d="M22.46,10l-.25.06-.07-.29-1,.21s-.06-.28-.06-.3l1-.22S22,9.19,22,9.17l.24-.05S22.45,10,22.46,10Z"/><path class="cls-2" d="M1.83,9.48A.67.67,0,1,0,2.63,9,.67.67,0,0,0,1.83,9.48Zm1,.25a.4.4,0,0,1-.49.29.4.4,0,0,1,.18-.77A.4.4,0,0,1,2.86,9.73Z"/><path class="cls-2" d="M2.36,8a.67.67,0,1,0,1.23.55.68.68,0,0,0-.36-.92A.66.66,0,0,0,2.36,8Zm1,.44a.41.41,0,0,1-.54.19.4.4,0,0,1,.32-.72A.4.4,0,0,1,3.33,8.4Z"/><path class="cls-2" d="M3.29,6.32,4,6.76,3,6.88H3l-.17.27,1.09.65L4,7.55,3.3,7.11,4.37,7h0l.16-.27L3.45,6.07Z"/><path class="cls-2" d="M18.62,3.8l-.5.67,0-1.06h0l-.25-.19-.76,1,.24.17.51-.68V4.8h0L18.1,5l.76-1A2.15,2.15,0,0,0,18.62,3.8Z"/><path class="cls-2" d="M8.06,2.34s.36.76.36.76l-1-.49h0l-.28.13s.52,1.13.53,1.15L8,3.76S7.63,3,7.63,3l1,.49h0l.29-.13L8.33,2.21Z"/><path class="cls-2" d="M14,1.7s-.13.83-.13.83l-.52-.93h0l-.31-.05s-.19,1.23-.19,1.25l.3.05s.13-.84.13-.84l.51.94h0l.31,0s.19-1.23.19-1.24Z"/><path class="cls-2" d="M2.54,10.79c-.12,0-.17.12-.21.2v0c-.1.22-.23.32-.42.31a.35.35,0,0,1-.25-.12.52.52,0,0,1-.1-.37.79.79,0,0,1,.15-.37l.2.13a.43.43,0,0,0-.11.21c0,.11,0,.19.12.2s.15-.09.18-.15l0-.09a.37.37,0,0,1,.38-.28.41.41,0,0,1,.32.18.5.5,0,0,1,.08.37.8.8,0,0,1-.18.41l-.21-.14A.56.56,0,0,0,2.69,11,.19.19,0,0,0,2.54,10.79Z"/><path class="cls-2" d="M6.94,2.87l.38.6a.56.56,0,0,1,.13.45.6.6,0,0,1-.28.34.61.61,0,0,1-.43.11.62.62,0,0,1-.35-.31S6,3.47,6,3.46l.26-.16.35.56c.08.12.2.32.42.18s.08-.33,0-.45L6.69,3Z"/><path class="cls-2" d="M5.54,3.82s.31.36.31.36l-.38.33-.31-.36-.23.19s.81,1,.83,1L6,5.11l-.34-.4L6,4.38s.33.39.35.4l.22-.19-.82-1Z"/><path class="cls-2" d="M10,1.74s.11.47.11.47l-.49.11s-.1-.44-.11-.46l-.29.07s.29,1.21.3,1.23l.28-.07s-.12-.52-.12-.52l.49-.11s.12.5.12.51l.3-.07s-.29-1.21-.3-1.23Z"/><path class="cls-2" d="M11.66,1.5l-.38.7s.06.59.06.61l-.29,0s-.07-.6-.07-.6l-.53-.6.35,0s.29.34.29.34l.22-.4Z"/><path class="cls-2" d="M22.64,11.28l-.7-.38-.61.07s0-.27,0-.29l.61-.08.59-.54s0,.35.05.36l-.34.29.4.21S22.64,11.24,22.64,11.28Z"/><path class="cls-2" d="M12.39,1.54h-.34s-.5,1.23-.51,1.25h.32s.08-.23.08-.23h.52l.07.23h.32S12.4,1.55,12.39,1.54ZM12,2.35l.18-.47v0l.16.51Z"/><path class="cls-2" d="M14.49,2.89A.68.68,0,0,1,14.76,2a.73.73,0,0,1,.52-.05.67.67,0,0,1,.44.41l-.14.05-.14,0a.37.37,0,0,0-.24-.22.37.37,0,0,0-.47.27.39.39,0,0,0,0,.3.37.37,0,0,0,.6.07h0l-.3-.09.07-.21.61.18v0a.69.69,0,0,1-.25.38.68.68,0,0,1-.59.1A.73.73,0,0,1,14.49,2.89Z"/><path class="cls-2" d="M21.08,8.5c.11-.05.09-.19.07-.28h0a.43.43,0,0,1,.2-.49.32.32,0,0,1,.27,0A.45.45,0,0,1,21.9,8a.83.83,0,0,1,.06.39h-.23a.47.47,0,0,0,0-.24C21.66,8,21.58,8,21.5,8s-.08.16-.07.23v.1a.38.38,0,0,1-.19.43.38.38,0,0,1-.36,0,.55.55,0,0,1-.26-.28A.77.77,0,0,1,20.58,8l.25,0a.49.49,0,0,0,0,.32A.18.18,0,0,0,21.08,8.5Z"/><path class="cls-2" d="M17.55,3l-.34.62a.57.57,0,0,1-.32.34.64.64,0,0,1-.43-.08.6.6,0,0,1-.31-.32.56.56,0,0,1,.1-.46l.34-.62.26.14-.32.58c-.07.13-.18.33,0,.46s.33-.09.39-.22l.32-.58A2.15,2.15,0,0,1,17.55,3Z"/><path class="cls-2" d="M3.58,17a.46.46,0,0,0,.15-.23.32.32,0,0,0,0-.25.58.58,0,0,0-.1-.12.35.35,0,0,0-.14-.06.42.42,0,0,0-.19,0,.81.81,0,0,0-.25.1.91.91,0,0,0-.16.11.75.75,0,0,0-.12.14.33.33,0,0,0,0,.17.3.3,0,0,0,0,.17.38.38,0,0,0,.16.17.51.51,0,0,0,.25.06v.08a.66.66,0,0,1-.29-.08.67.67,0,0,1-.21-.23.9.9,0,0,1-.08-.25.42.42,0,0,1,0-.22.52.52,0,0,1,.11-.19.58.58,0,0,1,.19-.15.75.75,0,0,1,.24-.08.65.65,0,0,1,.24,0,.54.54,0,0,1,.2.1.4.4,0,0,1,.16.18.63.63,0,0,1,.09.25.56.56,0,0,1,0,.19.25.25,0,0,1-.09.09l-.13.08Z"/><path class="cls-2" d="M3.61,17.49a.65.65,0,0,1,.22-.11.61.61,0,0,1,.23,0,.57.57,0,0,1,.22.07.94.94,0,0,1,.18.17.49.49,0,0,1,.1.22.55.55,0,0,1,0,.22.6.6,0,0,1-.09.22.72.72,0,0,1-.17.18.65.65,0,0,1-.22.11.6.6,0,0,1-.23,0,.4.4,0,0,1-.21-.07.56.56,0,0,1-.19-.16.62.62,0,0,1-.1-.22.6.6,0,0,1,0-.23.64.64,0,0,1,.09-.21A.58.58,0,0,1,3.61,17.49Zm.55.74a.75.75,0,0,0,.27-.31.29.29,0,0,0-.3-.4.8.8,0,0,0-.37.17.75.75,0,0,0-.27.31.26.26,0,0,0,0,.28.27.27,0,0,0,.26.12A.76.76,0,0,0,4.16,18.23Z"/><path class="cls-2" d="M5,19.5l.58-.57.07.06-.84.83-.06-.06.1-1.16-.62.62-.07-.06.69-.68,0,0a.14.14,0,0,0,0-.06.13.13,0,0,0,0-.06l0-.06h0l0,0L5,18.3a.53.53,0,0,1,.1.14.3.3,0,0,1,0,.13Z"/><path class="cls-2" d="M6.47,19.64l0,.06a.08.08,0,0,1,0,.05s0,0,0,.05l0,0L6.4,20l0,0a.2.2,0,0,0,.06-.16.26.26,0,0,0-.1-.15l-.19-.15-.28.36.3.24-.05.06-.3-.24-.35.44-.18-.14.58-.74a.34.34,0,0,0,.06-.12s0-.06,0-.1h0l0,0Z"/><path class="cls-2" d="M6.69,20.65a.44.44,0,0,0-.09.29.21.21,0,0,0,.12.19.3.3,0,0,0,.28.05.59.59,0,0,0,.25-.25l.34-.57.08.05L7.33,21a.94.94,0,0,1-.14.18.44.44,0,0,1-.15.1.37.37,0,0,1-.18,0,.48.48,0,0,1-.21-.09c-.27-.16-.32-.39-.14-.7l.22-.36a.27.27,0,0,0,0-.13s0-.06-.06-.09l0,0,.16.11A.15.15,0,0,1,7,20a.09.09,0,0,1,0,.06.31.31,0,0,1,0,.08.28.28,0,0,1-.05.09Z"/><path class="cls-2" d="M8.71,21.29a.51.51,0,0,0,0-.28.33.33,0,0,0-.18-.17l-.15,0a.28.28,0,0,0-.15,0,.79.79,0,0,0-.15.12,1.29,1.29,0,0,0-.13.24.7.7,0,0,0-.06.19.54.54,0,0,0,0,.18.34.34,0,0,0,.06.15.44.44,0,0,0,.15.12.5.5,0,0,0,.24,0,.54.54,0,0,0,.23-.11l0,.07a.85.85,0,0,1-.28.12A.63.63,0,0,1,8,21.89a1.1,1.1,0,0,1-.21-.14.76.76,0,0,1-.12-.19.78.78,0,0,1,0-.22,1.05,1.05,0,0,1,.06-.24.77.77,0,0,1,.14-.21A.85.85,0,0,1,8,20.75a.59.59,0,0,1,.23-.05.48.48,0,0,1,.23.05.7.7,0,0,1,.23.14.48.48,0,0,1,.1.15.2.2,0,0,1,0,.13,1.21,1.21,0,0,1-.05.14Z"/><path class="cls-2" d="M9.26,21.07l.22.07L9.2,22a.32.32,0,0,0,0,.13.1.1,0,0,0,.09.07h0v.05l-.21-.07a.15.15,0,0,1-.07,0,.05.05,0,0,1,0-.05.15.15,0,0,1,0-.07A.61.61,0,0,1,9,22Z"/><path class="cls-2" d="M10,22a.5.5,0,0,0,0,.3.25.25,0,0,0,.19.15.33.33,0,0,0,.28-.06.64.64,0,0,0,.14-.32l.13-.65.09,0-.13.65a.65.65,0,0,1-.07.21.35.35,0,0,1-.27.22h-.22c-.32-.07-.44-.27-.37-.62l.08-.42a.31.31,0,0,0,0-.13.11.11,0,0,0-.09-.07v-.05l.19,0,.07,0,0,.05a.19.19,0,0,1,0,.08s0,.06,0,.11Z"/><path class="cls-2" d="M11.48,22.71a.34.34,0,0,1-.14,0l-.13-.05-.09-.07a.12.12,0,0,1,0-.1v-.2h.06a.38.38,0,0,0,.09.27.33.33,0,0,0,.23.1.27.27,0,0,0,.16,0,.13.13,0,0,0,.07-.12.18.18,0,0,0,0-.13.5.5,0,0,0-.13-.11l-.2-.15a.41.41,0,0,1-.16-.16.24.24,0,0,1,0-.17.26.26,0,0,1,.12-.21.46.46,0,0,1,.3-.07l.14,0,.13,0,.08.07a.16.16,0,0,1,0,.09v.21h-.06a.43.43,0,0,0-.09-.27.26.26,0,0,0-.21-.09.18.18,0,0,0-.15,0,.19.19,0,0,0-.07.12.15.15,0,0,0,0,.07l0,.06.06,0,.07.05.21.15a.65.65,0,0,1,.17.15.3.3,0,0,1-.09.4A.46.46,0,0,1,11.48,22.71Z"/><path class="cls-2" d="M13.55,21.46l.23,0,.13.93a.28.28,0,0,0,0,.12.1.1,0,0,0,.11,0h0v.05l-.21,0h-.08l0,0a.16.16,0,0,1,0-.07.65.65,0,0,0,0-.11Z"/><path class="cls-2" d="M15.26,21.94l-.2-.79.08,0,.29,1.14-.08,0-.94-.67.21.85-.08,0-.24-.93s0,0,0-.06a.08.08,0,0,0,0,0l-.05,0a.22.22,0,0,0-.08,0h0l0-.06.13,0a.46.46,0,0,1,.16,0,.22.22,0,0,1,.12,0Z"/><path class="cls-2" d="M16.28,22l-.14,0H16a.23.23,0,0,1-.11,0,.13.13,0,0,1-.06-.07l-.08-.19.05,0a.45.45,0,0,0,.2.21.36.36,0,0,0,.25,0,.28.28,0,0,0,.13-.1.13.13,0,0,0,0-.15.15.15,0,0,0-.09-.1.53.53,0,0,0-.16,0l-.25,0a.42.42,0,0,1-.21-.08.26.26,0,0,1-.11-.14.23.23,0,0,1,0-.24.44.44,0,0,1,.24-.19l.13,0h.14l.11,0a.16.16,0,0,1,.07.07l.07.2-.05,0a.45.45,0,0,0-.2-.21.37.37,0,0,0-.23,0,.18.18,0,0,0-.12.1.17.17,0,0,0,0,.14l0,.05a.09.09,0,0,0,.06,0l.07,0,.08,0,.26,0,.21.06a.26.26,0,0,1,.11.14.26.26,0,0,1,0,.27A.53.53,0,0,1,16.28,22Z"/><path class="cls-2" d="M17.33,20.15l0,.07L17,20.4l.51,1-.2.11-.51-1-.12.06s-.09.06-.1.11a.22.22,0,0,0,0,.17l0,0-.07-.14a.08.08,0,0,1,0,0,0,0,0,0,1,0-.05s0,0,0-.05l.06-.05Z"/><path class="cls-2" d="M17.56,20l.2-.13.52.79a.38.38,0,0,0,.09.09.09.09,0,0,0,.11,0h0l0,0-.17.12-.07,0a.08.08,0,0,1-.07,0l-.06-.05-.06-.08Z"/><path class="cls-2" d="M18.81,19.06l.05.06-.29.24.68.84-.18.15-.68-.85-.1.08a.22.22,0,0,0-.09.13.18.18,0,0,0,.07.16l-.05,0-.09-.12,0-.05a.07.07,0,0,1,0,0,.17.17,0,0,1,0-.05.13.13,0,0,1,.05-.06Z"/><path class="cls-2" d="M19.7,19.18a.47.47,0,0,0,.26.15.22.22,0,0,0,.22-.08.28.28,0,0,0,.1-.26.54.54,0,0,0-.18-.3l-.48-.46.06-.06.48.46a.7.7,0,0,1,.14.17.41.41,0,0,1,.07.17.57.57,0,0,1,0,.18.68.68,0,0,1-.13.18.44.44,0,0,1-.71,0L19.19,19a.38.38,0,0,0-.11-.08.09.09,0,0,0-.1,0l0,0,.13-.15.06,0a.08.08,0,0,1,.07,0l.07,0,.08.07Z"/><path class="cls-2" d="M20.44,17.17l.07,0-.22.3.87.65-.13.19-.88-.65-.08.1A.3.3,0,0,0,20,18a.25.25,0,0,0,.1.14l0,0L20,18l0,0s0,0,0-.05v-.05a.16.16,0,0,1,0-.07Z"/><path class="cls-2" d="M20.92,16.35s0-.05,0-.06l.05,0h.05l.05,0,.13.08,0,0a.18.18,0,0,0-.17,0,.23.23,0,0,0-.12.12l-.14.25.38.21.23-.4.07.05-.23.4.43.24.14-.27a.25.25,0,0,0,.05-.16.31.31,0,0,0-.08-.18l0,0,.09.11a.24.24,0,0,1,.06.09.15.15,0,0,1,0,.11l-.33.57L20.8,17a.34.34,0,0,0-.12,0s-.07,0-.09.06v0l0,0Z"/></g></g></svg>