<svg width="37" height="37" viewBox="0 0 37 37" fill="none" xmlns="http://www.w3.org/2000/svg">
<path d="M25.3288 18.1826L23.4388 16.2926L20.1088 19.6226L20.1088 11.4326L17.4088 11.4326L17.4088 19.6226L14.0788 16.2926L12.1888 18.1826L18.7588 24.7526L25.3288 18.1826ZM36.7588 18.1826C36.7588 20.6426 36.2863 22.9676 35.3413 25.1576C34.3963 27.3476 33.1063 29.2601 31.4713 30.8951C29.8363 32.5301 27.9238 33.8201 25.7338 34.7651C23.5438 35.7101 21.2188 36.1826 18.7588 36.1826C16.2688 36.1826 13.9288 35.7101 11.7388 34.7651C9.54879 33.8201 7.64379 32.5301 6.02379 30.8951C4.40379 29.2601 3.12129 27.3476 2.17629 25.1576C1.23129 22.9676 0.758788 20.6426 0.758788 18.1826C0.758788 15.6926 1.23129 13.3526 2.17629 11.1626C3.12129 8.97262 4.40379 7.06762 6.02379 5.44762C7.64379 3.82762 9.54879 2.54512 11.7388 1.60012C13.9288 0.655116 16.2688 0.182617 18.7588 0.182616C21.2188 0.182616 23.5438 0.655116 25.7338 1.60012C27.9238 2.54512 29.8363 3.82762 31.4713 5.44762C33.1063 7.06762 34.3963 8.97262 35.3413 11.1626C36.2863 13.3526 36.7588 15.6926 36.7588 18.1826ZM34.0588 18.1826C34.0588 13.9226 32.5663 10.3076 29.5813 7.33762C26.5963 4.36762 22.9888 2.88262 18.7588 2.88262C14.4988 2.88262 10.8838 4.36762 7.91379 7.33762C4.94379 10.3076 3.45879 13.9226 3.45879 18.1826C3.45879 22.4126 4.94379 26.0201 7.91379 29.0051C10.8838 31.9901 14.4988 33.4826 18.7588 33.4826C22.9888 33.4826 26.5963 31.9901 29.5813 29.0051C32.5663 26.0201 34.0588 22.4126 34.0588 18.1826Z" fill="#6D7DCD"/>
</svg>
