<svg width="27" height="29" viewBox="0 0 27 29" fill="none" xmlns="http://www.w3.org/2000/svg">
<path d="M22.3171 24.9937L15.1942 17.4161C14.6525 17.9155 14.0206 18.3045 13.2984 18.583C12.5761 18.8615 11.8088 19.0008 10.9963 19.0008C9.04629 19.0008 7.39421 18.2805 6.04004 16.8399C4.68587 15.3993 4.00879 13.661 4.00879 11.6249C4.00879 9.58886 4.68587 7.85053 6.04004 6.40993C7.39421 4.96932 9.03726 4.24902 10.9692 4.24902C12.8831 4.24902 14.5126 4.96932 15.8577 6.40993C17.2029 7.85053 17.8755 9.58886 17.8755 11.6249C17.8755 12.4509 17.7491 13.248 17.4963 14.0163C17.2435 14.7846 16.8643 15.5049 16.3588 16.1772L23.5088 23.726L22.3171 24.9937ZM10.9692 17.2721C12.4317 17.2721 13.6775 16.7198 14.7067 15.6154C15.7359 14.5109 16.2505 13.1808 16.2505 11.6249C16.2505 10.0691 15.7359 8.7389 14.7067 7.63444C13.6775 6.52998 12.4317 5.97775 10.9692 5.97775C9.48865 5.97775 8.22928 6.52998 7.19108 7.63444C6.15289 8.7389 5.63379 10.0691 5.63379 11.6249C5.63379 13.1808 6.15289 14.5109 7.19108 15.6154C8.22928 16.7198 9.48865 17.2721 10.9692 17.2721Z" fill="black"/>
</svg>
